<svg width="241" height="292" viewBox="0 0 241 292" fill="none" xmlns="http://www.w3.org/2000/svg">
<path fill-rule="evenodd" clip-rule="evenodd" d="M127.165 242.115L127.823 241.586L128.324 241.615L128.839 242.073L128.066 242.53L127.809 242.587L127.523 243.346L128.624 243.217L129.74 242.745L130.255 242.816L130.512 243.145L131.242 243.074L131.37 241.572L131.285 240.771L130.927 240.428L131.213 239.856L130.741 239.055L129.869 239.384L129.611 239.055L130.326 238.182L130.97 237.653L131.742 237.31L133.816 235.836L134.117 235.336L134.546 235.107L134.703 234.077L134.202 233.505L134.489 233.305L135.175 233.505L135.418 232.933L135.833 233.305L135.905 233.991L135.59 234.363L136.219 234.563L136.605 235.836L136.176 235.665L135.69 235.979L135.361 236.752L133.916 237.696L133.73 238.339L133.359 238.668L133.545 239.298L133.974 239.77L134.503 239.884L134.317 240.37L134.517 241.357L134.989 242.073L135.719 241.701L136.52 241.93L136.934 243.288L137.964 243.775L138.665 243.675L139.981 243.86L140.911 243.217L141.311 243.617L141.754 243.703L142.441 243.346L143.213 243.517L142.455 243.675L142.212 244.447L142.756 244.175L143.156 244.733L143.743 244.89L143.485 245.505L142.083 246.12L141.94 247.708L141.311 247.851L141.139 248.695L141.468 248.995L141.054 250.182L141.111 251.556L141.712 251.069L142.098 250.111L142.727 249.11L146.417 248.294L146.832 247.865L147.275 248.066L147.805 247.636L147.619 248.352H147.218L146.775 248.695L146.56 249.639L146.231 249.253L145.902 249.453L146.417 250.197L146.904 250.383L147.404 249.811L147.891 250.011L148.119 249.61L148.434 249.696L149.092 248.638L149.006 249.696L148.663 250.311L149.392 250.626L149.593 250.197L149.707 248.824H150.022L150.308 249.768L150.622 249.11L150.923 249.41L151.423 249.281L150.708 248.094L151.624 248.437L152.196 248.252L152.496 247.622L151.538 247.665L151.824 246.964L152.439 246.764L152.053 246.278L152.696 246.178L153.125 246.507L154.184 246.306L154.356 246.907L155.056 247.15L154.813 247.837L155.643 248.166L155.986 247.393L156.415 247.808L157.116 247.937L158.289 246.964L158.918 247.05L159.047 246.821L160.02 246.607L160.034 246.95L159.176 247.694L158.26 247.951L157.874 248.566L158.046 248.867L158.461 248.466L158.933 248.58L159.519 248.194L159.934 248.552L160.191 247.737L160.906 247.665L160.878 247.064L161.235 246.778L161.707 246.864L161.393 247.708L161.107 247.651L160.563 248.409L160.749 248.809L160.148 249.567L159.59 249.482L159.204 249.768L158.804 249.668L158.503 250.125L159.247 250.726L159.519 250.254L159.791 250.34L159.862 251.269L159.39 251.713L159.061 252.571L159.018 253.458L159.562 253.887L158.961 254.144L157.888 253.672L157.359 254.03L157.016 253.987L157.273 253.386L157.917 253.343L157.459 253.029L156.758 253L157.016 252.299L156.229 251.298L155.957 251.527L156.043 252.428L155.485 252.671L155.042 253.129L155.342 253.372L155.814 253L156.186 253.644L155.986 254.073L155.5 253.916L154.756 254.516L154.499 255.003L153.912 254.659L152.382 255.231L151.81 254.988L151.609 255.489L152.053 255.761L151.552 256.247L152.224 256.304L151.066 257.591L150.494 257.949L149.993 258.593L149.135 258.435L148.563 258.507L148.963 259.451L149.321 259.723L149.893 259.494L150.379 259.007L151.795 258.693L151.781 257.949L152.253 257.935L152.468 257.577L153.268 257.348L153.712 257.906L153.44 258.507L153.64 258.922L154.069 258.907L154.656 259.394L154.499 259.837L154.828 260.109L155.428 259.522L156.058 259.422L156.215 260.023L155.857 260.223L156.53 260.709L157.073 260.652L157.874 259.994L158.317 260.881L158.632 260.037L158.589 259.637L159.004 259.765L159.834 259.651L160.091 259.236L160.563 259.279L160.735 258.349L161.45 258.521L161.421 259.422L160.949 259.866L161.078 260.295L161.407 260.137L162.237 260.466L161.107 260.738L160.778 261.353L161.149 261.153L161.478 261.396L161.55 262.154L162.251 262.426L163.08 262.24L163.409 262.354L162.551 262.698L162.036 262.454L161.407 263.07L161.536 263.785L161.793 263.828L161.736 264.557L162.122 265.344L162.68 265.329L162.98 265.687L162.322 266.245L162.265 267.089L161.807 267.189L161.822 267.804L162.508 268.247L163.138 268.018L163.08 268.405L161.521 269.62L161.321 268.962L160.663 268.447L160.062 268.662L159.633 269.406L159.719 270.393L158.732 270.965L158.604 270.564L157.702 270.722L157.445 271.094L157.388 272.052L157.588 272.481L158.089 272.538L159.018 272.352L158.589 273.11L157.474 273.125L157.059 273.425L156.63 272.996L156.229 273.253L156.744 273.911L156.301 274.183L155.242 273.797L154.327 273.84L152.982 273.668L151.323 273.897L148.906 273.868L146.675 272.953L145.13 271.88L143.6 271.122L142.799 270.507L141.94 270.121L141.282 269.62L140.153 269.32L139.423 269.291L138.837 269.806L137.993 269.105L137.435 269.191L137.077 269.706V270.936L138.064 271.78L137.793 272.052L137.607 272.953L137.978 273.01L138.222 273.539L138.622 273.783L138.436 274.412L138.636 275.27L139.137 276.042L139.866 276.185L139.967 276.643L140.424 277.044L140.896 276.715L141.082 277.573L141.869 277.988L142.312 279.032L142.298 279.404L141.654 279.818L141.383 280.448L141.368 281.048L140.911 281.549L140.61 281.106L140.896 280.362L140.639 279.747L140.052 279.647L139.394 279.976L138.937 280.905L139.638 281.621L139.895 282.293L141.139 283.38L140.81 285.153L139.723 285.368L139.938 284.581L139.123 283.566L138.751 283.494L138.193 283.995L137.678 283.423L137.478 283.923L137.878 284.424L138.679 284.224L138.994 284.61L138.365 285.182L137.764 284.939L137.707 285.511L137.349 285.654L137.063 286.241L136.477 286.713H135.633L135.318 286.326L134.36 286.426V286.641L133.53 286.684L133.416 286.999L131.885 286.012L131.056 286.083L130.856 285.325H131.456L131.728 284.867L131.614 284.209L131.199 283.737L130.856 283.78L130.241 283.437L130.155 283.065L130.713 283.022L129.997 282.193L129.854 281.807L130.126 281.377L129.339 281.435L129.454 282.279H129.111L128.696 281.821L128.667 282.422L129.354 282.736L129.826 282.722L129.497 283.394L129.869 284.209L129.082 284.195L128.095 284.91L127.523 285.754L126.136 285.053L126.25 284.467L125.52 283.695L124.948 283.923L124.391 283.566L124.576 283.08L125.492 282.379L125.835 281.821L127.022 281.692L127.895 281.406L127.852 280.462L127.966 279.504L127.823 279.218L128.538 278.688L128.124 277.73L127.194 277.63L126.064 277.816L125.106 277.287H124.405L123.618 277.687L123.461 278.431L122.817 278.789L122.717 279.718L122.102 280.09L122.116 280.677L121.744 280.805L121.258 281.463L121.344 282.093L121.873 282.522L122.259 283.437L120.872 282.793L120.457 282.136L119.885 281.749L118.054 281.335L117.268 281.435L116.996 280.691L116.223 280.333L114.622 280.662L114.135 280.419L112.934 280.905L112.719 281.878L112.776 282.593L112.033 282.393L111.074 282.55L110.817 282.908L109.701 282.722L108.929 282.808L108.629 283.337L107.556 283.494L107.284 283.38L105.668 283.938L105.31 283.895L105.11 284.395L104.237 284.31L104.566 283.666L104.609 282.307L104.838 281.864L104.552 281.134L105.096 280.791L104.752 280.133L103.823 279.733L103.508 279.919L103.379 280.734L102.779 281.006L102.421 281.435L102.092 280.734L101.377 280.72L100.404 281.192L100.333 280.662L100.733 280.405L100.604 279.947L100.161 279.59L99.4316 279.432L98.6593 279.661L97.6295 279.032L96.2993 279.175L95.9274 279.475L95.2694 279.203V278.231L94.5114 277.501H93.453L93.124 277.816L92.4374 277.373L90.7497 277.258L89.3909 276.843L87.0738 277.001L86.5446 277.258L85.8294 277.072L85.6435 276.657L84.442 276.543L84.3133 276.071L83.2835 275.814L83.6267 275.485L83.1404 273.811L82.4539 272.266L82.0248 271.751V269.892L81.7101 268.776L81.281 268.362L81.2953 267.318L81.1523 266.588L80.5945 266.359V266.045H81.1809L81.7673 265.344L82.7828 265.315L83.1118 264.743L83.3693 263.699L83.4694 262.712L83.8985 262.283L84.0129 261.024L83.9414 260.409L83.5552 259.236L83.0832 258.664L82.5397 258.435L82.0534 258.664L81.4384 258.607L82.0677 257.677L82.7113 257.82L83.5838 258.65L84.1273 259.58L83.8413 258.779L84.5707 259.007L84.4706 259.737L84.8282 259.15L85.0141 259.394L84.5135 259.909L84.7424 260.094L85.1572 259.665L85.0999 260.338L85.5147 261.067L86.1012 260.638L85.5719 260.195L85.8151 259.065L85.6435 257.906L85.9581 256.547L85.6721 256.461L85.2001 257.949L85.4003 258.435L85.2287 258.779L84.6709 258.593L84.3419 257.877L84.585 257.248L84.9712 257.048L85.2287 256.461L84.9426 256.233L84.8139 256.733L84.3848 257.105L84.0987 256.519L84.2132 257.32L83.9557 257.606V256.447L83.7698 256.419L83.8413 257.42L83.3693 258.006L83.5981 257.134L83.3979 256.175L82.7113 255.332L82.1678 255.36L82.3251 255.832L81.1809 255.904L80.3084 254.96L79.6362 255.117L78.3918 255.06L78.0914 255.618L77.6909 255.575L77.5908 254.774L77.9055 254.759L78.7637 253.558L79.8507 253.072L80.337 253.1L80.5945 253.572L81.2238 253.401L81.8674 253.501L82.9259 252.156L84.3133 252.042L85.8437 252.685L86.3586 252.6L87.0595 251.956L87.2597 251.126L87.7889 250.44L88.1465 249.396H88.5613L89.1477 248.809L88.8331 248.523L89.4195 247.451L89.5482 246.363L89.1477 245.563L87.9177 245.634L87.4886 245.276L86.5732 246.035L84.4849 246.106L84.1559 246.306L83.5552 246.235L82.6827 247.036L81.9104 246.692L81.3668 246.635L80.194 247.293L79.8507 247.994L79.0068 248.094L78.4347 247.88L77.8483 247.336L78.5348 246.907L79.1499 245.82L79.2071 245.305L78.6206 245.033L79.2071 244.075L80.7375 242.087L80.8233 241.744L80.4228 241.529L80.9091 240.828L80.5087 240.199L80.8233 239.527L81.8674 239.641L82.6112 239.226L83.3836 238.54V238.182L84.2275 238.082L84.4706 238.354L85.2573 238.139V236.766L85.0713 236.509L83.8985 236.537V236.266L84.8997 235.865L85.8294 236.122L86.6733 236.709L87.5172 236.409L88.0178 237.667L88.7043 237.825L89.7628 237.338L90.2348 237.553L90.9499 238.225L91.1931 238.711H91.5506L91.5649 239.398L91.8939 239.77L92.7092 240.042L93.5674 239.584L94.0251 240.056L94.8403 239.956L94.9834 239.655L95.7414 239.384L96.3279 240.213L96.7856 240.07L97.9584 240.8L98.5449 240.785L99.2028 240.342L100.018 240.971L100.032 240.185L99.4459 239.527L99.5175 238.954L98.7737 238.568L97.3291 238.039L96.5996 238.01L95.3553 237.753L95.484 237.081L96.3136 237.066L97.1288 237.395L97.5865 237.167L97.6867 236.366L97.5436 235.979L96.9286 236.008L96.0132 235.55L95.5555 235.507L94.7688 235.021H94.4113L93.1669 236.037L93.1097 235.35L93.9965 234.449L94.9119 233.019L94.6115 232.447L94.826 231.445L95.1407 231.073L96.6139 228.241L96.8571 227.269L97.2719 227.569L97.229 227.04L96.3851 227.112L96.0847 226.625L96.6998 226.783L98.316 225.71L98.8452 225.152L99.8893 223.464L99.2028 222.248L100.004 221.576L100.862 221.548L101.076 221.104H101.906L102.521 220.832L102.864 220.318L103.422 220.403L103.78 220.003L104.252 219.888L104.681 219.273H105.053L105.825 219.86L106.283 219.817L106.969 220.26L107.313 220.947L108.586 221.548L110.488 221.476L110.803 221.219H111.961L112.276 220.832L112.891 220.761L113.42 221.033L113.878 220.689L114.464 220.661L114.908 220.375L115.465 220.518L115.866 220.36L116.238 220.704L116.51 221.519V222.32L116.924 223.221L118.312 224.351L118.612 224.766H120.328L120.443 225.467L120.214 226.096L120.343 227.054L120.8 227.498L121.33 227.655L120.729 228.413L120.986 229.071L121.587 229.486L122.073 229.586L122.789 230.358L123.776 230.845L124.72 230.973L125.206 231.388L126.207 231.66L126.407 232.833L126.178 233.648L125.578 234.091L124.548 234.22L125.177 233.963L124.634 233.491L123.876 233.105L123.146 234.449L124.119 234.478L123.418 234.649L122.989 235.579L123.489 235.822L122.803 235.965L122.674 236.237L121.945 236.337L120.872 237.267L120.815 238.053L121.358 238.983L122.002 238.196L122.174 238.854L121.587 239.584L121.93 240.07L122.574 238.897L124.791 237.968L125.12 238.225L125.048 239.355L125.249 240.027L125.764 240.213L125.091 241.186L124.791 241.972L124.748 243.074L125.549 243.346L127.165 242.115Z" fill="#FDAB45"/>
<path fill-rule="evenodd" clip-rule="evenodd" d="M136.091 241.515L136.363 240.786L136.234 239.642L136.42 239.284L137.149 239.785L137.607 239.656L138.394 239.055L138.951 239.298L139.738 239.227L141.397 237.296L141.54 237.968L142.27 238.083L142.356 237.453L142.899 237.496L143.199 237.21L143.414 236.452L143.457 235.494L144.272 235.351L144.601 234.664L144.63 235.408L145.188 235.851L145.502 235.737L146.661 236.209L146.632 237.224L146.403 237.239L144.53 238.483L143.958 238.583L143.729 239.584L143.328 239.327L143.042 239.513L143.185 240.013L142.441 239.928L142.184 240.285L141.612 240.171L141.311 240.557L139.895 240.371L138.565 241.215L137.936 241.515L137.636 241.415L136.863 241.916L136.091 241.515Z" fill="#FDAB45"/>
<path fill-rule="evenodd" clip-rule="evenodd" d="M94.3686 60.7811L94.4687 59.6797L94.7261 58.464L95.1838 56.9908L96.3567 53.6724L97.1577 51.0979L97.4294 48.7808L97.8585 47.2075L98.2304 45.2193L98.2447 43.5888L97.644 41.3861L97.4437 40.342L97.4151 39.1262L96.843 35.7793L96.2423 33.5337L95.6272 32.1606L95.098 31.5027L93.539 30.2297L93.0813 29.629L92.8238 28.8137L92.5664 27.1402L92.1516 25.5955L91.4364 23.9077L90.8643 23.4214L90.1062 22.0054L88.3899 20.5465L86.2301 19.059L84.5566 18.0005L84.5995 17.6859L85.9011 16.184L87.1741 15.426L88.3327 14.1673L88.7761 13.3234L89.3196 12.7084L89.6199 12.0791L90.6355 10.4914L91.0216 10.0766L91.7797 9.93359L92.6808 10.4914L92.0801 10.4485L91.9084 10.8633L92.1087 11.2352L92.4806 10.849H93.3816L93.4103 11.4211L92.8524 12.2793L92.7952 13.0231L92.2374 13.3234L92.4233 12.8657L91.9656 12.8085L92.1659 13.4092L92.9669 13.1661L93.1671 13.8097L92.9239 14.0958L93.4103 15.097L93.9252 15.7693L92.9669 16.699L92.5521 18.2294L92.0658 18.3438V19.7741L92.2946 21.3332L92.7094 22.1341L93.3816 22.6204L93.682 23.164L94.297 23.4786L93.8537 23.6074L92.7237 23.3642L92.266 22.8207L91.9227 22.0054L91.5079 20.4607L90.993 19.7455L90.5353 19.6883L90.4924 18.7872L89.9203 18.587L89.7344 17.8575L89.1622 17.0994H89.6771L90.049 16.8134L89.4054 16.2556L89.4483 15.9123L90.9358 15.9409L92.1373 15.7406L91.8226 15.2257L92.2803 14.8539L92.1516 14.2674L91.5079 14.5392L91.5365 14.0672L91.0359 13.8669L90.6641 14.3676L90.2493 13.4808L89.3768 13.1661L89.906 13.7668L90.2779 14.625L89.0192 15.7263L87.5889 16.5702L87.6032 17.3855L88.0323 19.059L88.4185 19.7741L88.347 20.0602L88.9763 20.8469L89.8345 21.0471L89.906 20.4178L90.5925 20.2604L91.0645 20.618L90.6355 21.9053L90.7642 22.6776L91.937 23.9077L92.3375 23.8219L92.9239 25.0949L93.1385 25.1092V24.4083L93.4818 24.4226L93.2672 25.0377L93.5533 26.2534L94.297 27.1688L94.9121 26.9257L94.7118 27.5121L94.7547 29.4001L95.6129 30.716L96.4568 31.5885L97.6869 32.3322L97.2006 33.6481L97.0146 34.8496L97.0861 36.1226L97.5582 38.9832L98.2304 41.4433L98.3448 42.1585L98.7453 43.2455L98.8025 44.0036L98.5308 45.4196L98.2876 45.9774L98.2161 46.9071L97.9586 47.7796L97.8442 48.7379L98.2304 50.0681L98.0159 50.8547L98.5451 51.4269L98.9742 51.5127L100.533 51.1265L101.892 50.3684L102.807 50.4256L103.809 50.1539L104.309 49.0955L104.681 48.8094L104.838 48.0799L104.939 46.1919L104.695 43.789L104.252 42.8021L103.809 42.6877L104.166 42.044L104.352 41.0857L105.411 39.4409L106.04 38.9403L106.54 38.0678L106.526 37.2954L106.97 37.1095L107.513 36.237L106.455 35.0069L105.797 34.5921L105.582 33.4479L105.196 32.9759L104.853 31.8173L103.637 30.7303L104.152 30.3441L103.751 29.8578L104.266 29.8435L104.652 29.3143L105.124 27.7695L105.11 25.2522L105.84 23.7647V23.1353L105.21 21.0471L106.641 21.3475L107.384 21.2759L107.971 21.419L108.557 21.2902L109.244 21.4905L110.345 22.0626L111.332 21.2759L111.346 20.4321L111.833 20.1317L112.519 20.0459L113.349 20.3033L113.949 19.3021L114.464 19.2163L114.522 18.7157L113.992 18.5441L114.479 17.0851L115.366 16.9993L115.151 17.2854L115.795 17.4856L116.109 16.7705L115.194 16.7848L115.652 16.1411L116.61 15.8122L117.01 15.9981L118.255 15.8408L118.927 16.227L119.814 17.1853L120.143 18.1007L120.786 18.5441L121.387 19.6597L122.546 20.4893L123.862 22.9494L124.748 24.3225L125.964 25.3237L126.522 25.9101L126.894 26.9257L129.054 28.7422L129.683 28.7565L130.298 29.1283L130.727 30.0867L131.199 30.4156L132.544 32.1034L133.144 32.3751L134.589 33.9342L135.79 35.4217L136.663 36.9235L136.834 36.9664L137.85 39.1834L138.465 40.013L138.708 41.3575L138.937 41.5863L139.452 42.9594L139.209 43.2026L139.666 44.1466L139.752 45.5483L140.296 46.5924L140.753 48.6092L140.682 50.2254L141.097 51.3983L141.697 51.9561L141.783 52.9144L141.583 54.4734L141.869 55.5032L141.369 56.5188L141.583 57.5915L141.111 58.0635L140.796 58.7071L140.668 59.5224L140.768 60.2376L140.367 60.824L139.666 61.4104L139.509 61.7966L139.881 63.8563L139.953 65.1292L140.224 66.016L139.953 67.4034L139.252 68.1186L138.951 68.7622V69.649L139.223 70.4643L140.253 71.5084L139.881 72.3523L139.824 73.0531L139.995 74.2403L140.868 75.3702L141.612 75.7564L141.655 75.9996L141.14 76.5145L140.625 76.1998L140.024 75.1271L139.066 74.1688L136.72 72.9387L135.561 72.5811L131.957 72.2808L131.213 73.0674L130.77 73.2105L130.427 73.6396L130.012 74.8982L129.425 75.5991L129.025 76.6432L128.825 76.8292L129.054 74.8839L128.982 73.5967L128.453 71.9375L127.123 69.3772L126.551 68.6192L125.192 67.3033L124.434 66.7455L122.746 65.7729L121.63 65.3295L120.229 65.1864L119.184 65.2723L118.369 64.7573L117.068 64.1995L116.553 63.3699L115.709 62.3544L113.163 60.9098L112.133 60.4664L111.232 59.5224L110.274 59.0933L109.673 58.4926L108.972 58.3925L108.371 57.8776L107.556 57.9348L106.726 57.7345L105.296 57.5486L104.195 57.7488L101.964 58.6642L100.304 59.5653L98.874 60.4664L97.9729 61.1673L96.8716 62.3115L96.0992 62.7692L95.5271 62.7263L94.9407 62.4259L94.4973 61.5535L94.3686 60.7811Z" fill="#FDAB45"/>
<path fill-rule="evenodd" clip-rule="evenodd" d="M101.377 13.9966L101.048 15.4985L101.219 16.986L101.462 16.5283L102.02 18.5307L102.678 19.5319L104.366 20.762L105.196 21.1625L104.895 22.6357L104.581 23.0362L104.438 22.4069L103.88 21.9349L102.793 21.5487L102.149 20.2328L101.734 20.3758L101.319 19.7179V19.0742L100.976 18.9312L100.733 19.3889L100.49 18.9884L100.733 18.6881L100.132 18.7882L99.789 19.5176L99.7604 20.6476L100.118 21.706L100.004 22.3497L99.0882 20.7191L98.6877 20.5618L97.286 18.8025L96.7282 18.4735L95.5267 18.3019L95.1834 18.5164L94.1107 17.93L94.0678 17.5724L94.5684 17.4008L94.8974 16.2136L94.8116 15.7559L93.9391 14.7547L93.6244 14.154L93.1953 12.7952L93.8676 11.3077L93.5958 10.2778L93.7102 9.40535L94.4683 9.27662L95.2693 9.51978L95.4409 9.79154H96.0988L96.3277 9.04778L97.1001 8.87614L97.9725 9.64851L98.6448 9.29093L99.1597 8.7045L99.4172 7.28849L99.9464 6.57334L99.9178 5.78667L99.2312 6.08704L99.3742 6.75928L99.0453 7.17407L98.8736 7.96074L99.0596 8.36123L98.2729 7.86062L98.1585 8.56147L97.9439 8.66159L97.7008 7.46013L97.3289 7.73189V8.30401L96.814 8.53286L97.1001 8.08947L97.3003 6.95952L96.6424 6.90231L96.1274 7.46013L96.5565 6.4017L97.3146 5.55782L98.6019 5.31467L98.8021 5.11442L100.29 5L101.091 5.57212L101.72 6.48752L102.821 7.44583L102.964 7.80341L103.88 9.06208L104.91 10.0061L105.682 10.993L106.54 12.738L107.341 13.4388L108.042 14.7404L107.541 14.6832L106.84 15.4413L106.054 15.1409L105.41 14.2112L105.281 12.8524L105.61 12.4805L104.981 12.2374L104.738 11.5079L104.295 10.85V12.1945L104.066 12.5949L104.194 13.2958L103.837 13.8679L102.964 13.8107L102.521 14.3542L102.063 13.6963L101.305 13.5389L100.561 13.1957L100.619 12.9382L100.089 11.8369L100.49 11.1932L100.619 10.2063L101.148 9.49117L101.749 8.26111L102.135 8.2468L102.664 8.80462L102.907 8.67589L101.863 7.94644L101.677 7.14546L101.234 6.4017L100.905 6.35879L100.819 5.55782L100.404 5.37188L100.547 6.78789L99.7747 7.54595L99.3027 8.97626L99.8749 9.31953L99.9321 9.73432L100.504 10.3637L99.789 10.5925L99.4315 10.9215L99.2741 11.5794L98.8593 11.4793L98.8164 10.2063L99.031 9.39105L98.6305 9.82014L96.6853 10.2635L95.3408 10.6783L95.1119 10.9644L95.6984 11.3506L96.5279 10.8357L96.5708 10.5353L97.3289 11.2505L97.5005 12.1515L98.1156 12.0514L98.4732 11.5508L99.4172 12.1372L99.4601 12.9382L100.704 13.5676L100.762 13.353L101.377 13.9966Z" fill="#FDAB45"/>
</svg>
