<svg width="241" height="292" viewBox="0 0 241 292" fill="none" xmlns="http://www.w3.org/2000/svg">
<path fill-rule="evenodd" clip-rule="evenodd" d="M159.911 281.875V280.969V280.969V280.969H160.817V280.969V280.969V281.875V281.875V281.875H159.911V281.875V281.875Z" fill="#FDAB45"/>
<path fill-rule="evenodd" clip-rule="evenodd" d="M81.0977 68.093V68.093V68.093V67.1871V67.1871V67.1871H82.0035V67.1871V67.1871V67.1871V67.1871V67.1871V67.1871V67.1871V67.1871V67.1871V67.1871V67.1871V66.2812V66.2812V66.2812V66.2812V66.2812V66.2812V66.2812V66.2812V66.2812V66.2812V66.2812V66.2812V66.2812V66.2812V66.2812V66.2812V66.2812V66.2812V66.2812V66.2812V66.2812H82.9094V66.2812H82.0035V66.2812V66.2812V66.2812V66.2812H82.9094V66.2812V66.2812V67.1871V67.1871V67.1871V67.1871V67.1871V67.1871V67.1871V67.1871V67.1871V67.1871V67.1871V67.1871V67.1871V67.1871V67.1871V67.1871V68.093V68.093V68.093V68.093V68.093V68.093V68.093V68.093V68.093V68.093V68.093V68.093V68.093V68.093V68.093V68.093V68.093H82.0035V68.093V68.9989V68.9989V68.9989V68.9989V68.9989V68.9989V68.9989V68.9989V68.9989V68.9989V68.9989V68.9989V68.9989V68.9989V68.9989V68.9989V68.9989V68.9989V68.9989V68.9989V68.9989H81.0977V68.093V68.093V68.093V68.093V68.093V68.093V68.093V68.093V68.093V68.093V68.093V68.093V68.093V68.093Z" fill="#FDAB45"/>
<path fill-rule="evenodd" clip-rule="evenodd" d="M66.6022 25.5195V26.4254V26.4254V26.4254H65.6963V26.4254V25.5195H66.6022V25.5195Z" fill="#FDAB45"/>
<path fill-rule="evenodd" clip-rule="evenodd" d="M63.8864 11.9297V12.8356V12.8356V12.8356L64.7922 13.7415H65.6981H64.7922V13.7415V14.6473V14.6473V14.6473H65.6981H64.7922H65.6981V14.6473V14.6473V14.6473V14.6473H64.7922V14.6473V14.6473V14.6473V14.6473V14.6473V14.6473V14.6473V15.5532V15.5532V15.5532V15.5532V15.5532V15.5532V15.5532V15.5532V15.5532V15.5532V15.5532V15.5532V15.5532V15.5532V15.5532V15.5532V15.5532V15.5532V15.5532H65.6981V15.5532V15.5532H64.7922V15.5532V15.5532V15.5532V15.5532V16.4591V16.4591V16.4591V16.4591V16.4591V16.4591V16.4591V16.4591V16.4591V16.4591V16.4591V16.4591V16.4591V16.4591V16.4591V16.4591V16.4591V15.5532V15.5532V15.5532V15.5532V15.5532V15.5532V15.5532V15.5532V15.5532H63.8864V15.5532H64.7922V16.4591V16.4591V16.4591V16.4591V16.4591V16.4591V16.4591V16.4591V16.4591H63.8864V16.4591V16.4591V16.4591V16.4591V16.4591V15.5532V15.5532V15.5532V15.5532V15.5532V15.5532V15.5532V15.5532V15.5532V15.5532V15.5532V15.5532V15.5532V14.6473V14.6473V14.6473V14.6473V14.6473V14.6473V14.6473V14.6473V14.6473V14.6473V14.6473V14.6473V14.6473V14.6473V13.7415V13.7415V13.7415V13.7415V13.7415V13.7415V13.7415V13.7415V13.7415V13.7415V13.7415V13.7415V13.7415V12.8356V12.8356V12.8356V12.8356V12.8356V12.8356V12.8356V12.8356V12.8356H62.9805V12.8356V12.8356V12.8356H63.8864V11.9297Z" fill="#FDAB45"/>
<path fill-rule="evenodd" clip-rule="evenodd" d="M21.3125 150.523V150.523V150.523V149.617V149.617V149.617V149.617V149.617V149.617V149.617H22.2184V149.617V149.617V149.617V149.617V149.617V149.617V149.617V149.617V149.617V150.523V150.523V150.523V150.523V150.523V150.523V150.523V150.523V150.523V150.523V150.523V150.523H21.3125V150.523V150.523V150.523V150.523V150.523V150.523V150.523V150.523V150.523V150.523Z" fill="#FDAB45"/>
<path fill-rule="evenodd" clip-rule="evenodd" d="M5 157.761V157.761V157.761V157.761V157.761V157.761H5.90588V157.761V157.761V157.761V157.761V157.761V157.761V156.855V156.855H5H5.90588V156.855V156.855V156.855V156.855V156.855V156.855V156.855V156.855V156.855V156.855V156.855V156.855V156.855V156.855V156.855V156.855V156.855V156.855V156.855V156.855H6.81176V156.855V156.855V156.855V156.855V156.855V156.855V156.855V156.855V156.855V156.855V156.855V156.855V156.855H7.71765V156.855V156.855V156.855V155.949V155.949V155.949V156.855V156.855V156.855V156.855V156.855V156.855V156.855V156.855H8.62353V156.855V156.855V156.855V156.855V156.855V156.855V157.761V157.761V157.761V157.761V157.761V157.761V157.761V157.761V157.761V157.761V157.761V157.761L7.71765 158.667V158.667V158.667V158.667V158.667V158.667V158.667V158.667V158.667V158.667H6.81176V158.667V158.667V158.667V158.667V157.761V157.761V157.761V157.761V157.761H5.90588V157.761V157.761V157.761V157.761V157.761V157.761V157.761V157.761V157.761V157.761V157.761V157.761V157.761V157.761V157.761V157.761V157.761V157.761V157.761V157.761V157.761H5V157.761V157.761V157.761Z" fill="#FDAB45"/>
<path fill-rule="evenodd" clip-rule="evenodd" d="M215.17 202.152V202.152V202.152V202.152V202.152V201.246V201.246V201.246V201.246V201.246V201.246V201.246V201.246V202.152V202.152V202.152V202.152V202.152V202.152V202.152V202.152V202.152V202.152V202.152V202.152V202.152V202.152V202.152V202.152V202.152V202.152V202.152V202.152V202.152V202.152V202.152V202.152V202.152V202.152H214.264V202.152V202.152H215.17H214.264H215.17V202.152V202.152V202.152V202.152V202.152V202.152Z" fill="#FDAB45"/>
<path fill-rule="evenodd" clip-rule="evenodd" d="M221.513 198.543V198.543V198.543V198.543H220.607H221.513V198.543V198.543V198.543V198.543V198.543V198.543V198.543V198.543V198.543V198.543V198.543V198.543V198.543V198.543V198.543V197.637V197.637V197.637V197.637V197.637V197.637H222.419V197.637V197.637V197.637V197.637V197.637V197.637V197.637V197.637V197.637V197.637V197.637V197.637V197.637V197.637V197.637V197.637V197.637V197.637V197.637V197.637V197.637V197.637V197.637V197.637V197.637V197.637V197.637V197.637V197.637V197.637V197.637V197.637V197.637V197.637L221.513 198.543V198.543V198.543V198.543V198.543V198.543V198.543V198.543V198.543V198.543V198.543V198.543V198.543V198.543V198.543V198.543V198.543Z" fill="#FDAB45"/>
<path fill-rule="evenodd" clip-rule="evenodd" d="M162.63 279.164V279.164V280.07H161.725V279.164V279.164H162.63V279.164V279.164V279.164V279.164V279.164V279.164V279.164V279.164V279.164V279.164V279.164V279.164V279.164H163.536V279.164V279.164V279.164V279.164V279.164V279.164V279.164V279.164V280.07V280.07V280.07V280.07V280.07V280.07V280.07V280.07V280.07V280.07V279.164H162.63V280.07V279.164Z" fill="#FDAB45"/>
<path fill-rule="evenodd" clip-rule="evenodd" d="M188.901 221.175V221.175V221.175V221.175V221.175V221.175V221.175V220.269V220.269V220.269V220.269V220.269V220.269V220.269V220.269V220.269V220.269V220.269V220.269V220.269V220.269V220.269V220.269V220.269V220.269V220.269H189.807V220.269V220.269V220.269V220.269V220.269V220.269V220.269V220.269V220.269V220.269V219.363V219.363V219.363V219.363H190.713V219.363V219.363V219.363V219.363V219.363V219.363V219.363V219.363V219.363V219.363V219.363V219.363V219.363V219.363H189.807L188.901 220.269V220.269V221.175V221.175V221.175Z" fill="#FDAB45"/>
<path fill-rule="evenodd" clip-rule="evenodd" d="M207.019 211.218V211.218H207.924V211.218V211.218V210.312V210.312V210.312V210.312V211.218V211.218V211.218V211.218V211.218V211.218V211.218V211.218V211.218V211.218V211.218V210.312V210.312V210.312V210.312V210.312V210.312V210.312V210.312V210.312V210.312V210.312V211.218H208.83V210.312V210.312V211.218V210.312V211.218V211.218V211.218V211.218V210.312V210.312V210.312V210.312V210.312V210.312V210.312V210.312V210.312V210.312V210.312V210.312V210.312V210.312V210.312H207.924V210.312V210.312V210.312V210.312V210.312V210.312V210.312V210.312V210.312V210.312V210.312V210.312V210.312V210.312V210.312V210.312V210.312V210.312V209.406H207.019V209.406V209.406V209.406V209.406V209.406V209.406V209.406V209.406V209.406V209.406V209.406V209.406V209.406V209.406V209.406V209.406V209.406V209.406V209.406V209.406V209.406V209.406V208.5V208.5V208.5V208.5V208.5V208.5V208.5V208.5H207.924V208.5V209.406V208.5V208.5V209.406V209.406V209.406V209.406V209.406V209.406V209.406V209.406V209.406V209.406V209.406V209.406V209.406V209.406V209.406V209.406V209.406V209.406V209.406V209.406V209.406V209.406V209.406V209.406V209.406V209.406V209.406V209.406V209.406V209.406V209.406V209.406V209.406V209.406V209.406V209.406V209.406V209.406V209.406V209.406V209.406V209.406V209.406V209.406V209.406V209.406V209.406H208.83V209.406V209.406H207.924V208.5V208.5V208.5V208.5V208.5V208.5V208.5V208.5V208.5V208.5V208.5V208.5V208.5V208.5V208.5V208.5H208.83V208.5V209.406V209.406V208.5V208.5V209.406V209.406V209.406V209.406V209.406V209.406V209.406V209.406V209.406V209.406V209.406V209.406V209.406V209.406V209.406V209.406V209.406V209.406V209.406V209.406V209.406V209.406V209.406V209.406V209.406V209.406V209.406V209.406V209.406V209.406V209.406V209.406V209.406V209.406V209.406V209.406V209.406V209.406V209.406V209.406V209.406V209.406V209.406V209.406V209.406V208.5V208.5V208.5V208.5V208.5V208.5V208.5V208.5V208.5V208.5V208.5V208.5V208.5V208.5V208.5V208.5V208.5V208.5V208.5V209.406V209.406V209.406H209.736V209.406V209.406V209.406V209.406V209.406V209.406V209.406V209.406V209.406V209.406V210.312H208.83V210.312V210.312V210.312V210.312V210.312V210.312V211.218V211.218V211.218V211.218V211.218V211.218V211.218V211.218H207.924V211.218V211.218V211.218V211.218V211.218V211.218V211.218H207.019V211.218V211.218V211.218Z" fill="#FDAB45"/>
<path fill-rule="evenodd" clip-rule="evenodd" d="M205.2 210.324V210.324V210.324V210.324V210.324V210.324V210.324V210.324V210.324V210.324V210.324V210.324V210.324V210.324V210.324V210.324V210.324V210.324V210.324V210.324V210.324V210.324V210.324V210.324V209.418V209.418V209.418V209.418V209.418V209.418V209.418H206.106V209.418V209.418V209.418V209.418V209.418V209.418V209.418V209.418V209.418V209.418V209.418V209.418V209.418V209.418V209.418V209.418V209.418V209.418V209.418V209.418V209.418V209.418V209.418V209.418V209.418V209.418V209.418V209.418V209.418V209.418V209.418V209.418V209.418V209.418V209.418V209.418V209.418H207.012V209.418V209.418V209.418V209.418V209.418V209.418V209.418V209.418V209.418V209.418V209.418V209.418V210.324V210.324V210.324V210.324V210.324V210.324V210.324V210.324V210.324V210.324V211.23V211.23V211.23V211.23V211.23V210.324V210.324V211.23V210.324L206.106 211.23V211.23V211.23V211.23V211.23H205.2V211.23V211.23V211.23V211.23V212.136V212.136V212.136H204.294V212.136V212.136V212.136V212.136V212.136V211.23V211.23V211.23V211.23V211.23V211.23V211.23V211.23V211.23V211.23V211.23V211.23V211.23V211.23V211.23V211.23V211.23V211.23V211.23V210.324V210.324V210.324V210.324V210.324V210.324V210.324V210.324V210.324V210.324V210.324V210.324V210.324V210.324V210.324H205.2V210.324V210.324V210.324V210.324V210.324V210.324V210.324V210.324V210.324V210.324V210.324V210.324V210.324Z" fill="#FDAB45"/>
<path fill-rule="evenodd" clip-rule="evenodd" d="M209.729 206.702V206.702V206.702V205.797V205.797V205.797V205.797V205.797V205.797V205.797V205.797V205.797V205.797V205.797V205.797V205.797V205.797V205.797H208.823V205.797V205.797V205.797V205.797V205.797V205.797V205.797V204.891V204.891V204.891V204.891H209.729V204.891V204.891V204.891V204.891V204.891V204.891V204.891V204.891V204.891V204.891V204.891V204.891V204.891V204.891V204.891V204.891V204.891V204.891V204.891V204.891V204.891V204.891V204.891V204.891V204.891V204.891V205.797V205.797V205.797V205.797V205.797V205.797V205.797V205.797V205.797V205.797V205.797V205.797V205.797V205.797V205.797V205.797V205.797V205.797V204.891V204.891V204.891V204.891V204.891V204.891H210.635V204.891V204.891V204.891V204.891V204.891V204.891V204.891V204.891V204.891V204.891V204.891V204.891V204.891H211.541V204.891V204.891V204.891V204.891V204.891V204.891V204.891V204.891V204.891V204.891V204.891V204.891V204.891V204.891V204.891V204.891V205.797V205.797V205.797V205.797V205.797V205.797H210.635V205.797V205.797V205.797V205.797V205.797V205.797V205.797V205.797V205.797H209.729V205.797V205.797V205.797V205.797H210.635V205.797V205.797V205.797V206.702H209.729V206.702V206.702V206.702Z" fill="#FDAB45"/>
<path fill-rule="evenodd" clip-rule="evenodd" d="M212.454 204.875V204.875H213.36V204.875V205.781V205.781V205.781V205.781V205.781V205.781V205.781V205.781V205.781V205.781V205.781V205.781V205.781V205.781V205.781V205.781V205.781V205.781V205.781V205.781V205.781V205.781V205.781V205.781V205.781L212.454 206.686V206.686V206.686V206.686V205.781V205.781V205.781V205.781V205.781V205.781V205.781V205.781V205.781V205.781V205.781V205.781V205.781V205.781V205.781V205.781V205.781V205.781V205.781V205.781V205.781V205.781V205.781V205.781V205.781V205.781V205.781V205.781V205.781V205.781V205.781V205.781V205.781V205.781V205.781V205.781V205.781V205.781V205.781V205.781V205.781V205.781V205.781V205.781V205.781V205.781H211.548V205.781V205.781V205.781V205.781H212.454V205.781V205.781V205.781H211.548V205.781V205.781V205.781V205.781V205.781V205.781V205.781V205.781V205.781V205.781V205.781V205.781V205.781V205.781V205.781V205.781V205.781V205.781V205.781V205.781V205.781V205.781V205.781V205.781V205.781V205.781V205.781V205.781V205.781V205.781V205.781V205.781V205.781V205.781V205.781V205.781V205.781V205.781V205.781V205.781V205.781V205.781V205.781V205.781V204.875V204.875V204.875V204.875V204.875V204.875V204.875V204.875V204.875V204.875V204.875V204.875V204.875V204.875V204.875V204.875V204.875V204.875V204.875V204.875V204.875V204.875V204.875V204.875V204.875V204.875H212.454V203.969V203.969V203.969V203.969V203.969V203.969V203.969V203.969V203.969V203.969V203.969V203.969V203.969V203.969V203.969V203.969V203.969V203.969V203.969V203.969V203.969V203.969V203.969V203.969V203.969V203.969V203.969V203.969V203.969V203.969V203.969V203.969V203.969V203.969V203.969V203.969V203.969H213.36V203.969V203.969V203.969V203.969V203.969V203.969V203.969V203.969V203.969V203.969V203.969V203.969V203.969V203.969V203.969V203.969V203.969V203.969V203.969V203.969V203.969V203.969V203.969V203.969V203.969V203.969V203.969V203.969V203.969V203.969V203.969V203.969V203.969V203.969V203.969V203.969V203.969V203.969V203.969V203.969V203.969V203.969V203.969V203.969V203.969H214.265V203.969V203.969V203.969V203.969V203.969V203.969V203.969V203.969V203.969H213.36V203.969H214.265V203.969V203.969V203.969V203.969V203.969V203.969V203.969V203.969V203.969V203.969V203.969V203.969V204.875V204.875V204.875V204.875V204.875V204.875V204.875V204.875V204.875V204.875V204.875V204.875V204.875V204.875V204.875V204.875V204.875V204.875V204.875V204.875V204.875V204.875V204.875V204.875V204.875V204.875V204.875V204.875H213.36V204.875V204.875V204.875V204.875H214.265V204.875V204.875V204.875V204.875V204.875V204.875V204.875V204.875V204.875V204.875V204.875V205.781V205.781V205.781V205.781V205.781V205.781V205.781V205.781V205.781V205.781V205.781V205.781V205.781V205.781V205.781H213.36V205.781V205.781V204.875V204.875V204.875V204.875V204.875V204.875V204.875V204.875V204.875V204.875V204.875V204.875V204.875V204.875V204.875V204.875H214.265V204.875V204.875V204.875V204.875V204.875H213.36V204.875V204.875V204.875V204.875V204.875V204.875V204.875V204.875V204.875V204.875V204.875V204.875V204.875V204.875V204.875V204.875V204.875V204.875V204.875V204.875H212.454H213.36V204.875H212.454V204.875V204.875V204.875V204.875V204.875V204.875V204.875V204.875V204.875V204.875V204.875V204.875V204.875V204.875V204.875Z" fill="#FDAB45"/>
<path fill-rule="evenodd" clip-rule="evenodd" d="M217.886 202.152V202.152V202.152V202.152V202.152V202.152V201.246V201.246H218.792V201.246V201.246V201.246V201.246V201.246V201.246V201.246V201.246V201.246V201.246V201.246V201.246V201.246V201.246V201.246V201.246V202.152H217.886V202.152V202.152V202.152V202.152V202.152V202.152V202.152V203.058V203.058H216.98V203.058V203.058V203.058V203.058V203.058V203.058V203.058V203.058V203.058V203.058V203.058V203.058V203.058V203.058H217.886V203.058V202.152V202.152V202.152V202.152V202.152V202.152V202.152V202.152V202.152V202.152V202.152V202.152V202.152V202.152Z" fill="#FDAB45"/>
<path fill-rule="evenodd" clip-rule="evenodd" d="M6.81176 136.949V136.949V136.949V136.949V136.949V136.949V136.949H7.71765V136.949V136.949V136.949V136.949V136.949V136.949V136.949V136.949V136.949V136.949V136.949V136.043V136.043V136.043V136.043V136.043V136.043V136.043V136.043V136.043V136.043V136.043V136.043V136.043V136.043V136.043V136.043V136.043V136.043V136.043V136.043V136.043V136.043V136.043V136.043V136.043V136.043V136.043V136.043V136.043V136.043V136.043V136.043V136.043V136.043V136.043V136.043V136.043V136.043V136.043V136.043V136.043V136.043V136.043V136.043V136.043V136.043H8.62353V136.043V136.043V135.137V135.137V135.137V135.137V135.137V135.137V135.137V135.137V135.137V135.137V135.137V135.137V135.137V135.137V135.137V135.137V135.137V135.137V135.137V135.137V135.137V135.137V135.137V135.137V135.137V135.137V135.137V135.137V135.137V135.137V135.137V135.137V135.137V135.137V135.137V135.137V134.231V134.231V134.231V134.231H9.52941V134.231V134.231V134.231V134.231V134.231V134.231V134.231V134.231V134.231V134.231V134.231V134.231V134.231V134.231V134.231V134.231V134.231V134.231V134.231V134.231V134.231V134.231V134.231V134.231V134.231V134.231V134.231V134.231V134.231V134.231V134.231V134.231V133.325V133.325V133.325V133.325V133.325V133.325V133.325V133.325V133.325V133.325V133.325V133.325V133.325V133.325V133.325V132.419V132.419V132.419V132.419V132.419V132.419V132.419V132.419V131.513V131.513V131.513V131.513V131.513V131.513V131.513V131.513V131.513V130.607V130.607V130.607V130.607V130.607V130.607V130.607V130.607V130.607V130.607V130.607V130.607V130.607V130.607L10.4353 129.701V129.701V129.701V129.701V129.701V129.701V129.701V129.701V129.701V128.796V128.796V128.796V128.796V128.796V128.796V128.796V128.796V127.89V127.89V127.89V126.984V126.984V126.984H11.3412V126.984V126.984V126.984V126.984V126.984V126.984V126.984V126.984V126.984V126.984V126.984V126.984V126.984V126.984V126.984V126.984V126.984V126.984V126.984V126.984V126.984V126.984V126.984V126.984V126.984V126.984V126.984V126.984H12.2471V126.984V126.984V126.984V126.984V126.984V126.078V126.078V126.078V126.984V126.984V126.984V126.984V126.984V126.984V126.984V126.078V126.078V126.078V126.078V126.078V126.078V126.078V126.078V126.078V126.078V126.078V126.078V126.078V126.078V126.078V126.078V126.078V126.078V126.078V126.078V126.078V126.078V126.078V126.078V126.078V126.078V126.078V126.078V126.078V126.078V126.078V126.078V126.078V126.078V126.078V126.078H13.1529V126.078V126.078V126.078V126.078V126.078V126.078V126.078V126.078V126.078V126.078V126.078V126.078V126.078V126.078V126.078V126.078V126.078V126.078V126.078V126.078V126.078V126.078V126.078V126.078V126.078V126.078H14.0588V126.078V126.078V126.078V126.078V126.078V126.078V126.078V126.078V126.078V126.078V126.078V126.078V126.078V126.078V126.078V126.078V125.172V125.172H14.9647V126.078V125.172V125.172V125.172V125.172V125.172V125.172V125.172V125.172V125.172V125.172V125.172V125.172V125.172V125.172V125.172V125.172V125.172V125.172V125.172V125.172V125.172V125.172V125.172V125.172V125.172V125.172V125.172V125.172V125.172V125.172V125.172V125.172V125.172V125.172V124.266V124.266V124.266V124.266V124.266V124.266V124.266V124.266V124.266V124.266V124.266V124.266V124.266V124.266V124.266V124.266V124.266V124.266V124.266V124.266V124.266V124.266V124.266V124.266H15.8706V124.266V124.266V124.266V124.266V124.266V124.266V124.266V124.266V124.266V124.266V124.266V124.266V124.266V124.266V123.36V123.36V123.36V123.36V123.36V123.36V123.36V123.36V123.36V123.36V123.36V123.36V123.36V123.36V122.454V122.454V122.454V122.454V122.454V122.454V122.454V122.454V122.454V122.454V122.454V122.454V122.454V122.454V122.454V122.454V122.454V122.454V121.549V121.549V121.549V121.549V121.549V121.549V121.549V121.549V121.549V121.549H16.7765V121.549V121.549V121.549V121.549V121.549V121.549V121.549V121.549V121.549V121.549V121.549V121.549V121.549V121.549V121.549V121.549V121.549V121.549H17.6824V121.549V121.549V121.549V121.549V121.549V121.549V121.549V121.549V121.549V121.549V121.549V121.549V121.549V121.549V121.549V121.549V121.549V120.643V120.643V120.643V120.643V121.549V121.549V121.549V120.643V120.643V120.643V120.643V120.643V120.643H18.5882V120.643V120.643V120.643V120.643V120.643V120.643V120.643V120.643V120.643V120.643V120.643V120.643V120.643V120.643V120.643V120.643V120.643V120.643V120.643V119.737V119.737V119.737V119.737V119.737V119.737V119.737V119.737V119.737V119.737V119.737V119.737V119.737V119.737V119.737V119.737V119.737V119.737V119.737V119.737H19.4941V119.737V119.737V119.737V119.737V119.737V119.737V119.737V118.831V118.831V118.831V118.831V118.831V118.831V118.831V118.831V118.831V118.831V118.831V118.831V118.831V118.831V118.831V118.831V117.925V117.925V117.925V117.925V117.925V117.925H20.4V117.925V117.925V117.925V117.925V117.925V117.925V117.925V117.019V117.019V117.019V117.019V117.019V117.019V117.019V117.019V117.019V117.019V117.019V116.113V116.113V116.113V116.113V116.113H21.3059V116.113V116.113V116.113V116.113V115.207V115.207V115.207V115.207V115.207V115.207V115.207V115.207V115.207V115.207V115.207V115.207V115.207V114.301V114.301V114.301V114.301V114.301V114.301V114.301V114.301V114.301V113.396V113.396V113.396V113.396V113.396V113.396V113.396V113.396V113.396V113.396V113.396V113.396V113.396V112.49V112.49V112.49V112.49V112.49H22.2118V112.49V112.49V112.49V112.49V112.49V112.49V112.49V111.584V111.584V111.584L23.1176 112.49V112.49L24.0235 110.678V110.678V110.678V110.678V110.678V110.678V110.678V110.678V110.678V110.678V110.678H24.9294V110.678V110.678V109.772V109.772V109.772V109.772V109.772V109.772H25.8353V109.772V109.772V109.772V109.772V109.772V109.772V109.772V109.772V108.866V108.866V108.866V108.866V108.866H26.7412V108.866V108.866V108.866V108.866V108.866V108.866V108.866H27.6471V108.866V108.866V108.866V108.866V108.866V108.866V108.866V108.866V108.866V108.866V108.866H28.5529V108.866V108.866V108.866V108.866V108.866V108.866V108.866V108.866H29.4588V108.866V108.866V108.866V108.866V108.866H30.3647V107.96V107.96V107.96V107.96V107.96V107.96V107.96V107.96V107.96V107.96V107.96V107.96V107.96V107.96V107.054V107.054V107.054V107.054H31.2706V107.054V107.054V107.054V107.054V107.054V107.054V107.054V107.054V107.054V106.149V106.149V106.149V106.149V106.149H30.3647V106.149V106.149V105.243V105.243V105.243V105.243V105.243V105.243V105.243V105.243V105.243L29.4588 104.337V104.337V104.337V104.337V104.337V104.337H30.3647V104.337V103.431V103.431V103.431V103.431V103.431H29.4588V103.431V103.431V103.431L30.3647 102.525V102.525V102.525V102.525V102.525V102.525V102.525V102.525V102.525V102.525V102.525L31.2706 101.619V101.619V101.619V101.619V101.619L32.1765 99.8074V98.9015H33.0824V98.9015L33.9882 97.9956L35.8 96.1838V96.1838V95.2779V93.4662V93.4662V93.4662V92.5603V87.125V86.2191V86.2191H34.8941V85.3132V84.4074V84.4074V83.5015V83.5015V83.5015V83.5015L33.9882 79.8779V78.0662V77.1603V77.1603V76.2544L33.0824 75.3485V74.4426V74.4426V74.4426V74.4426V74.4426V74.4426V74.4426V74.4426V74.4426V74.4426V74.4426V74.4426V73.5368V73.5368V73.5368V73.5368V73.5368V73.5368V73.5368H33.9882V73.5368V73.5368V73.5368V73.5368V73.5368V73.5368V73.5368V73.5368V73.5368V73.5368V73.5368V73.5368V73.5368V73.5368V73.5368V73.5368V73.5368V72.6309V72.6309V72.6309V72.6309V72.6309V72.6309V72.6309V72.6309V72.6309V72.6309V72.6309V72.6309H34.8941V72.6309H33.9882V72.6309H34.8941V72.6309V72.6309V72.6309H33.9882V72.6309V71.725V70.8191V70.8191V70.8191H33.0824V69.9132V69.0074V69.0074H32.1765V69.0074V69.9132L31.2706 69.0074V68.1015V68.1015L30.3647 67.1956L29.4588 66.2897V66.2897V65.3838V64.4779V64.4779V64.4779V63.5721V63.5721V63.5721V62.6662V62.6662H28.5529V61.7603V61.7603V61.7603V61.7603V60.8544H27.6471V60.8544V60.8544V60.8544H26.7412V60.8544V60.8544H25.8353V60.8544L24.9294 59.9485V59.9485L24.0235 59.0426V59.0426V57.2309V57.2309V56.325H23.1176V56.325V55.4191V55.4191V55.4191V54.5132V53.6074V53.6074L22.2118 52.7015V52.7015H21.3059V52.7015V52.7015L20.4 51.7956V51.7956V51.7956V51.7956V51.7956V51.7956L19.4941 49.9838V49.0779V49.0779V48.1721V47.2662V47.2662V47.2662L18.5882 46.3603V46.3603V45.4544V44.5485V44.5485V44.5485V44.5485V43.6426V43.6426V42.7368H17.6824H18.5882V42.7368H19.4941V42.7368V41.8309V41.8309L20.4 40.0191L19.4941 39.1132H20.4V39.1132V37.3015V37.3015H19.4941H18.5882V36.3956V36.3956V36.3956L17.6824 35.4897V35.4897V35.4897H16.7765V35.4897V35.4897H15.8706V36.3956V36.3956V36.3956V36.3956V36.3956L14.9647 35.4897V35.4897V35.4897V35.4897V35.4897V35.4897L14.0588 34.5838V34.5838V34.5838V34.5838V34.5838H13.1529V34.5838V34.5838V34.5838V34.5838V34.5838H12.2471V34.5838V34.5838V34.5838H11.3412V34.5838H12.2471V33.6779V33.6779V33.6779V33.6779H11.3412V33.6779V33.6779V33.6779V33.6779V33.6779V33.6779V33.6779V33.6779L12.2471 32.7721H13.1529V31.8662V31.8662V30.9603L12.2471 31.8662H11.3412V31.8662V31.8662V31.8662H10.4353V31.8662V31.8662H9.52941V31.8662V31.8662V31.8662V31.8662V31.8662V30.9603H10.4353V30.9603V30.0544V29.1485V29.1485V29.1485L9.52941 28.2426V28.2426L8.62353 27.3368V27.3368V27.3368H9.52941V26.4309V26.4309V25.525H8.62353V25.525V24.6191V23.7132V22.8074L6.81176 20.9956L8.62353 20.0897V19.1838V19.1838V19.1838H9.52941V19.1838V18.2779V18.2779V18.2779H10.4353V18.2779V17.3721V17.3721H11.3412V17.3721V17.3721V16.4662V16.4662H12.2471V16.4662V15.5603V15.5603V15.5603H13.1529V15.5603V14.6544V14.6544H14.0588V14.6544V14.6544V13.7485V13.7485H14.9647V13.7485V12.8426V12.8426V12.8426H15.8706V12.8426V11.9368V11.9368V11.9368H16.7765V11.9368V11.0309V11.0309H17.6824V11.0309V11.0309V10.125V10.125H18.5882V10.125V10.125V10.125H19.4941V10.125V10.125H20.4V10.125V10.125V10.125H21.3059V10.125V10.125H22.2118V10.125V10.125V10.125H23.1176V10.125V10.125V10.125H24.0235V10.125V10.125H24.9294V10.125V10.125V10.125H25.8353V10.125V10.125H26.7412V10.125V10.125V10.125V10.125H27.6471V10.125V10.125V10.125H28.5529V10.125V10.125V10.125H29.4588V10.125V10.125H30.3647V10.125V10.125V10.125H31.2706V10.125V10.125V10.125V10.125H32.1765V10.125V10.125V10.125V10.125H33.0824V10.125V10.125V10.125H33.9882V10.125V10.125V10.125V10.125H34.8941V10.125V10.125H35.8V10.125V10.125V10.125H36.7059V10.125V10.125V10.125V10.125H37.6118V10.125V10.125H38.5176V10.125V10.125V10.125H39.4235V10.125V10.125H40.3294V10.125V10.125V10.125H41.2353V10.125V10.125V10.125H42.1412V10.125V10.125V10.125H43.0471V10.125V10.125V10.125H43.9529V10.125V10.125V10.125H44.8588V10.125V10.125H45.7647V10.125V10.125V10.125H46.6706V10.125V10.125H47.5765V10.125V10.125V10.125H48.4824V10.125V10.125V10.125H49.3882V10.125V10.125H50.2941V10.125V10.125V10.125H53.0118H53.9176V10.125V10.125V10.125H54.8235V10.125V10.125V10.125H55.7294V10.125V10.125V10.125H56.6353V10.125V10.125V10.125H57.5412V10.125V10.125V10.125H58.4471V10.125V10.125H59.3529V10.125V10.125V10.125H60.2588V10.125V10.125H61.1647V10.125V10.125V10.125H62.0706V10.125V10.125V10.125H62.9765V10.125V10.125V10.125V11.0309H63.8824V11.0309L62.9765 11.9368V11.9368V11.9368V11.9368V11.9368V12.8426V12.8426V12.8426V12.8426V12.8426V13.7485V13.7485V13.7485V13.7485V13.7485V13.7485V13.7485V14.6544V14.6544V14.6544V14.6544V14.6544V15.5603V15.5603V15.5603V15.5603V15.5603V15.5603V15.5603V15.5603V15.5603V15.5603V15.5603V16.4662V16.4662V16.4662V16.4662V16.4662V16.4662V16.4662V16.4662V16.4662V16.4662V16.4662H62.0706V16.4662V16.4662V17.3721V17.3721V17.3721V17.3721V17.3721V17.3721V17.3721V17.3721V18.2779V18.2779V18.2779V18.2779V18.2779V18.2779V18.2779V18.2779V18.2779V18.2779V18.2779V18.2779V18.2779V19.1838V19.1838V19.1838V19.1838V19.1838V19.1838L62.9765 20.0897V20.0897V20.0897V20.0897V20.0897H62.0706V20.0897V20.9956V20.9956V20.9956V20.9956V20.9956V20.9956V20.9956H62.9765V20.9956V20.9956V20.9956V20.9956V20.9956V20.9956V20.9956V21.9015V21.9015V21.9015V21.9015V21.9015V21.9015H62.0706V21.9015V22.8074V22.8074V22.8074V22.8074H62.9765V22.8074V22.8074V22.8074V22.8074V22.8074V22.8074V23.7132V23.7132V23.7132V23.7132V23.7132V23.7132V23.7132V23.7132V24.6191V24.6191H62.0706V24.6191V24.6191V24.6191V24.6191V25.525V25.525V25.525V25.525V26.4309V26.4309V26.4309V26.4309V26.4309H61.1647V26.4309V26.4309V26.4309V26.4309V26.4309V27.3368V27.3368V27.3368V27.3368V27.3368V27.3368V27.3368V27.3368V28.2426V28.2426V28.2426V28.2426V28.2426V28.2426V28.2426V28.2426V28.2426V28.2426V28.2426V29.1485V29.1485H60.2588V29.1485V29.1485V29.1485V29.1485V29.1485V29.1485V30.0544V30.0544V30.0544V30.0544V30.0544V30.0544V30.0544V30.0544V30.9603V30.9603V30.9603V30.9603V30.9603V30.9603V30.9603V30.9603V30.9603V30.9603V30.9603H61.1647V31.8662V31.8662V31.8662V31.8662H60.2588V31.8662V31.8662V31.8662V31.8662V31.8662V31.8662V31.8662L61.1647 32.7721V32.7721V32.7721V32.7721V32.7721V32.7721V32.7721V32.7721V32.7721V32.7721V32.7721V32.7721V32.7721V32.7721H60.2588H61.1647H60.2588V32.7721V33.6779V33.6779V33.6779V33.6779V33.6779V33.6779V33.6779V33.6779V34.5838V34.5838V34.5838V34.5838V34.5838V34.5838V34.5838V34.5838V34.5838V34.5838V35.4897V35.4897V35.4897V35.4897V36.3956V36.3956V36.3956V36.3956V36.3956V36.3956V36.3956V36.3956V36.3956V36.3956V36.3956V37.3015V37.3015V37.3015V37.3015V37.3015V37.3015V37.3015V37.3015V37.3015V37.3015V37.3015V37.3015V37.3015V38.2074V38.2074V39.1132V39.1132V39.1132V39.1132V39.1132V39.1132V39.1132V39.1132V39.1132V40.0191V40.0191V40.0191V40.0191V40.0191V40.0191V40.0191V40.0191V40.0191V40.0191V40.0191H61.1647V40.0191V40.0191V40.0191V40.0191V40.0191V40.0191V40.0191V40.0191V40.0191V40.0191V40.0191V40.925V40.925V40.925V40.925V40.925V40.925V40.925H62.0706V40.925V40.925V40.925V40.925V40.925V40.925V40.925V40.925V40.925V40.925V40.925V40.925V40.925V40.925V40.925V40.925V40.925V40.925V41.8309V41.8309V41.8309V41.8309V41.8309V41.8309V41.8309V41.8309V41.8309V41.8309V41.8309V41.8309V41.8309V41.8309V41.8309V41.8309V41.8309V41.8309H61.1647V42.7368V42.7368H62.0706V42.7368V42.7368V42.7368V42.7368V42.7368V42.7368V42.7368V42.7368V42.7368V42.7368V42.7368V42.7368V42.7368V42.7368V42.7368V42.7368V42.7368V42.7368V42.7368V42.7368H62.9765V42.7368V42.7368V42.7368V42.7368V42.7368V42.7368V42.7368V42.7368V42.7368V42.7368V42.7368V42.7368V42.7368V42.7368V42.7368V42.7368V42.7368V42.7368V41.8309V41.8309V41.8309V41.8309V41.8309V41.8309V41.8309V41.8309V41.8309V41.8309V41.8309V41.8309V41.8309V41.8309V41.8309V41.8309V41.8309V40.925V40.925H62.0706V40.925V40.925V40.925H62.9765H62.0706V40.925V40.925V40.925V40.925V40.925V40.925V40.925V40.925V40.925V40.925V40.925V40.925V40.925H62.9765V40.925V40.925V40.925V40.925V40.925V40.925V40.925V40.925V40.925V40.925V41.8309V41.8309V41.8309V41.8309V41.8309V42.7368V42.7368V42.7368V42.7368V42.7368V42.7368V42.7368V42.7368V42.7368V42.7368V42.7368V43.6426V43.6426V43.6426V43.6426V43.6426V43.6426V43.6426V43.6426V43.6426V43.6426V44.5485V44.5485V44.5485V44.5485V44.5485V44.5485V44.5485V44.5485V44.5485V44.5485V45.4544V45.4544V45.4544V45.4544V45.4544V45.4544V45.4544V45.4544V45.4544V45.4544V45.4544V45.4544V45.4544V45.4544V45.4544V46.3603V46.3603V46.3603V46.3603V46.3603V46.3603V46.3603V46.3603V46.3603V46.3603V47.2662V47.2662V47.2662V47.2662V47.2662V47.2662V47.2662V47.2662H63.8824V47.2662V47.2662V47.2662V47.2662V47.2662V47.2662V47.2662V47.2662V47.2662V47.2662V47.2662V47.2662V47.2662V47.2662H64.7882V47.2662V47.2662V48.1721V48.1721V48.1721V48.1721V48.1721V49.0779V49.0779H65.6941V49.0779V49.9838V49.9838V49.9838V49.9838V49.9838V49.9838V49.9838V49.9838V49.9838V49.9838V49.9838V49.9838H66.6V49.9838V49.9838V49.9838V49.9838V50.8897V50.8897V50.8897V50.8897V50.8897V50.8897H67.5059V50.8897V50.8897V50.8897V50.8897V50.8897V50.8897V50.8897V50.8897V50.8897V50.8897V50.8897V50.8897H68.4118V50.8897V50.8897V50.8897V50.8897V50.8897V50.8897V50.8897V50.8897V50.8897V50.8897V50.8897H69.3176V50.8897H68.4118H69.3176H68.4118V50.8897V50.8897H69.3176V50.8897V50.8897V50.8897V50.8897V50.8897V50.8897V50.8897V50.8897V50.8897V50.8897V50.8897V51.7956V51.7956V51.7956V51.7956V51.7956H68.4118V51.7956V51.7956V51.7956V51.7956V52.7015V52.7015V52.7015V52.7015V52.7015V52.7015V52.7015V52.7015V52.7015V52.7015V52.7015V52.7015H69.3176V52.7015V52.7015V52.7015V52.7015V52.7015V53.6074V53.6074V53.6074V53.6074V53.6074V53.6074V53.6074V53.6074V53.6074V53.6074V54.5132V54.5132V54.5132V54.5132V54.5132V54.5132V54.5132V54.5132V54.5132V54.5132V55.4191V55.4191V55.4191V55.4191V55.4191V55.4191V55.4191V55.4191V55.4191V55.4191V55.4191V55.4191V55.4191H68.4118V55.4191V55.4191V55.4191V55.4191V55.4191V56.325V56.325V56.325V56.325V56.325V56.325V56.325V56.325V56.325V56.325V56.325V56.325V56.325V56.325V56.325V56.325V56.325V56.325V57.2309V57.2309V57.2309V57.2309V57.2309V57.2309V57.2309V57.2309V57.2309V57.2309V57.2309V57.2309V57.2309V57.2309V57.2309V57.2309V57.2309V57.2309V57.2309V57.2309V57.2309V57.2309V57.2309V57.2309H69.3176V57.2309V57.2309V57.2309V57.2309V57.2309V57.2309V57.2309V57.2309V57.2309V57.2309V57.2309V57.2309V57.2309V57.2309V57.2309V57.2309V57.2309V58.1368V58.1368V58.1368V58.1368V58.1368V58.1368V58.1368V58.1368V58.1368V58.1368V58.1368V58.1368V58.1368V58.1368V58.1368V58.1368H70.2235V58.1368V58.1368V58.1368V58.1368V58.1368V58.1368V58.1368V58.1368V58.1368V58.1368V58.1368H71.1294V58.1368V58.1368V58.1368V58.1368V58.1368V58.1368V58.1368V58.1368V58.1368V58.1368H72.0353V58.1368V58.1368V58.1368V58.1368V58.1368V58.1368V58.1368V58.1368V58.1368V58.1368V58.1368V58.1368V58.1368V58.1368V59.0426V59.0426V59.0426H72.9412V59.0426V59.9485V59.9485V59.9485V59.9485H73.8471V59.9485V59.9485V59.9485V60.8544V60.8544V60.8544V60.8544V60.8544V60.8544V60.8544V60.8544V60.8544H74.7529V60.8544V60.8544V60.8544V60.8544V60.8544V60.8544V60.8544V60.8544V60.8544V60.8544V60.8544V60.8544V60.8544V60.8544V60.8544H75.6588V60.8544V60.8544V61.7603V61.7603V61.7603V61.7603V61.7603V61.7603V61.7603V61.7603V61.7603V61.7603V61.7603V61.7603V61.7603V61.7603V61.7603V61.7603L76.5647 62.6662V62.6662V62.6662V62.6662V63.5721V63.5721L77.4706 64.4779V65.3838V65.3838V66.2897V66.2897V66.2897V67.1956V67.1956V68.1015H78.3765V68.1015V68.1015V69.0074V69.0074V69.0074L80.1882 69.9132V69.9132V69.9132V70.8191V70.8191V70.8191V70.8191V70.8191V70.8191V70.8191V70.8191V70.8191V71.725V71.725V71.725V71.725V71.725V71.725V71.725V71.725V71.725V71.725V71.725V71.725V72.6309V72.6309V72.6309V72.6309V72.6309V72.6309V72.6309V72.6309V72.6309V73.5368V73.5368V73.5368V73.5368V73.5368V73.5368V73.5368V73.5368V73.5368V73.5368V73.5368V73.5368V73.5368V73.5368V74.4426V74.4426V74.4426H81.0941V74.4426V74.4426V74.4426V74.4426V74.4426V74.4426V74.4426V74.4426V74.4426V74.4426V74.4426V74.4426V74.4426V74.4426V74.4426V74.4426V74.4426V74.4426V74.4426V74.4426H82V74.4426V74.4426V74.4426V74.4426V73.5368V73.5368V73.5368V73.5368V73.5368V73.5368V74.4426V74.4426V74.4426V74.4426V74.4426V74.4426V74.4426V74.4426V74.4426V74.4426V74.4426V74.4426V74.4426V74.4426H82.9059V74.4426V74.4426V74.4426V74.4426V74.4426V74.4426V74.4426V74.4426V74.4426V74.4426V74.4426V73.5368V73.5368V73.5368V73.5368V73.5368V74.4426V74.4426V73.5368V74.4426V74.4426V74.4426V74.4426V74.4426V74.4426V74.4426V74.4426V73.5368V73.5368V73.5368V73.5368V73.5368V73.5368V74.4426V74.4426V74.4426V74.4426V74.4426V74.4426V74.4426V74.4426V74.4426V74.4426H83.8118V74.4426V73.5368V73.5368V73.5368V73.5368V73.5368V73.5368V73.5368V73.5368V73.5368V73.5368V73.5368V73.5368V73.5368V73.5368V73.5368V73.5368V73.5368V73.5368V73.5368V73.5368V72.6309H84.7176V72.6309V72.6309V72.6309L85.6235 71.725H84.7176V71.725V71.725V71.725V71.725V71.725V71.725V71.725V71.725V71.725V71.725V71.725V71.725V70.8191V70.8191V70.8191V70.8191V70.8191V70.8191V70.8191V70.8191V70.8191V70.8191V70.8191V70.8191V70.8191V69.9132V69.9132V69.9132V69.9132V69.9132V69.9132V69.9132V69.9132V69.9132V69.9132V69.9132V69.9132V69.9132V69.9132V69.9132V69.9132V69.0074V69.0074V69.0074V69.0074V69.0074V69.0074V69.0074V69.0074V69.0074V69.0074V69.0074V69.0074V69.0074V69.0074V69.0074V69.0074V69.0074V68.1015V68.1015V68.1015V68.1015V68.1015V68.1015V68.1015V68.1015V68.1015V68.1015V68.1015V68.1015V68.1015V68.1015V68.1015V67.1956V67.1956V67.1956V67.1956V67.1956V67.1956V67.1956V67.1956V67.1956V67.1956V67.1956V67.1956V67.1956V67.1956V66.2897V66.2897V66.2897V66.2897V66.2897V66.2897V66.2897V66.2897V66.2897V66.2897V66.2897V66.2897V66.2897V66.2897V66.2897V66.2897V65.3838V66.2897V66.2897V65.3838V65.3838V65.3838V65.3838V65.3838V65.3838V65.3838V65.3838V65.3838V65.3838V65.3838V65.3838V65.3838V65.3838V65.3838V65.3838V65.3838V65.3838V65.3838V65.3838V65.3838V65.3838V65.3838V65.3838V65.3838V65.3838H85.6235V64.4779V64.4779V64.4779V64.4779V64.4779H84.7176H85.6235H84.7176L85.6235 63.5721H84.7176H85.6235H84.7176L85.6235 62.6662H84.7176V62.6662V62.6662V62.6662V62.6662V62.6662V61.7603V61.7603V61.7603V61.7603V61.7603V61.7603V61.7603V61.7603H85.6235V61.7603V61.7603V61.7603H84.7176V61.7603V61.7603V60.8544V60.8544V60.8544V60.8544V60.8544V61.7603V61.7603V61.7603V61.7603V61.7603V60.8544V60.8544V60.8544V60.8544V60.8544V60.8544V60.8544V60.8544V60.8544V60.8544V60.8544V60.8544V60.8544V59.9485V59.9485V59.9485V59.9485V59.9485V60.8544H83.8118V59.9485V59.9485V59.9485V59.9485V59.9485H82.9059V59.9485V59.9485V59.9485V59.9485V59.9485V59.9485H82V59.9485V59.9485V59.9485V59.9485V59.9485V59.9485V59.9485V59.9485H81.0941V59.9485V59.9485V59.9485V59.9485H80.1882V59.9485V59.9485V59.9485V59.9485V59.9485L79.2824 59.0426V59.0426V59.0426V59.0426V59.0426V59.0426H78.3765V59.0426V59.0426V59.0426V59.0426V58.1368V58.1368V58.1368V58.1368V58.1368H77.4706V58.1368V58.1368V58.1368V58.1368V58.1368V58.1368V57.2309V57.2309V57.2309V57.2309V57.2309V57.2309V57.2309H76.5647V57.2309V57.2309V56.325V56.325V56.325V56.325V56.325V56.325V56.325V56.325V56.325V56.325V56.325V56.325V56.325V56.325V56.325V55.4191V55.4191V55.4191V55.4191V55.4191V55.4191V55.4191V55.4191V54.5132V54.5132H75.6588V54.5132V54.5132V54.5132V54.5132V54.5132V54.5132V54.5132V54.5132V54.5132H76.5647V54.5132V54.5132H75.6588V53.6074V53.6074V53.6074V53.6074V53.6074V53.6074V53.6074V53.6074V53.6074V52.7015V52.7015V52.7015H74.7529V52.7015V51.7956V51.7956V51.7956H73.8471V51.7956V51.7956V51.7956V50.8897V50.8897H72.9412V50.8897V50.8897L73.8471 49.9838H72.9412V49.9838V49.9838V49.9838V49.9838V49.9838V49.9838V49.9838V49.9838V49.9838V49.9838V49.9838V49.0779V49.0779V49.0779V49.0779V49.0779V49.0779V49.0779V49.0779V49.0779V49.0779V49.0779V49.0779V49.0779V49.0779H72.0353V49.0779V49.0779V49.0779V49.0779V49.0779V49.0779V49.0779V48.1721V48.1721V48.1721V48.1721V48.1721V48.1721V48.1721V48.1721V48.1721V48.1721V48.1721V48.1721V48.1721H71.1294V48.1721V48.1721V48.1721V48.1721V48.1721V48.1721V47.2662V47.2662V47.2662V47.2662V47.2662V47.2662V47.2662V47.2662V47.2662V47.2662V47.2662V47.2662V47.2662V47.2662V47.2662V47.2662V47.2662V47.2662V47.2662V47.2662V47.2662V47.2662V47.2662H72.0353V47.2662V47.2662V47.2662V47.2662V47.2662V47.2662V47.2662V47.2662V47.2662V47.2662V47.2662V47.2662V47.2662V47.2662V47.2662V46.3603V46.3603V46.3603V46.3603V46.3603V46.3603V46.3603V46.3603V46.3603V46.3603V46.3603V46.3603V46.3603V46.3603V45.4544V45.4544V45.4544V45.4544V45.4544V45.4544V45.4544V45.4544V45.4544V45.4544V45.4544V45.4544V45.4544V45.4544V45.4544V45.4544V45.4544V45.4544V44.5485V44.5485V44.5485V44.5485H71.1294V44.5485V44.5485V44.5485V44.5485V44.5485V44.5485V43.6426V43.6426V43.6426V43.6426V43.6426V43.6426V43.6426V43.6426V43.6426V43.6426V43.6426V43.6426V43.6426V43.6426V43.6426V43.6426V43.6426V42.7368V42.7368V42.7368V42.7368V42.7368V42.7368V42.7368V42.7368V42.7368V42.7368V42.7368V42.7368V42.7368V41.8309V41.8309V41.8309V41.8309V41.8309V41.8309V41.8309V41.8309V41.8309V41.8309V41.8309H70.2235V41.8309H71.1294V40.925V40.925V40.925V40.925V40.925V40.925V40.925V40.925V40.925V40.925V40.925V40.925V40.925V40.925V40.0191V40.0191V40.0191V40.0191V40.0191V40.0191V40.0191V40.0191V40.0191V40.0191V40.0191V40.0191V40.0191V40.0191V40.0191V40.0191V40.0191V40.0191V39.1132V39.1132V39.1132V39.1132V39.1132V39.1132V39.1132V39.1132V39.1132V39.1132V39.1132V39.1132V38.2074V38.2074V38.2074V38.2074V38.2074V38.2074V38.2074V38.2074V38.2074V38.2074V38.2074V38.2074V38.2074V38.2074V38.2074V38.2074V37.3015V37.3015V37.3015V37.3015V37.3015V37.3015V37.3015V37.3015V37.3015V37.3015V37.3015V37.3015V37.3015V37.3015V37.3015V37.3015V37.3015V37.3015V37.3015H72.0353V37.3015V37.3015V37.3015V37.3015V37.3015V37.3015V37.3015V37.3015V37.3015V37.3015V37.3015V37.3015V37.3015V37.3015V37.3015V37.3015V37.3015V37.3015V37.3015V37.3015V37.3015V37.3015V37.3015V37.3015V37.3015V36.3956V36.3956V36.3956V36.3956V36.3956V36.3956V36.3956V36.3956V36.3956V36.3956V36.3956V36.3956V36.3956V36.3956V36.3956V36.3956V36.3956V36.3956V36.3956V36.3956H72.9412V36.3956V35.4897V35.4897V35.4897V35.4897V35.4897V35.4897V35.4897V35.4897V35.4897V35.4897V35.4897V35.4897V35.4897V35.4897V35.4897V35.4897V35.4897V34.5838V34.5838V34.5838V34.5838V34.5838V34.5838V34.5838V34.5838V34.5838V34.5838V34.5838V34.5838V34.5838V34.5838V34.5838V34.5838V34.5838V34.5838H72.0353V34.5838V34.5838V34.5838V34.5838V34.5838V34.5838V34.5838V33.6779V33.6779V33.6779V33.6779V33.6779V33.6779V33.6779V33.6779V33.6779V33.6779V33.6779V33.6779V33.6779V33.6779V33.6779V33.6779V33.6779V33.6779V33.6779V33.6779V33.6779V33.6779V33.6779V33.6779V33.6779V33.6779V32.7721V32.7721V32.7721V32.7721V32.7721V32.7721V32.7721V32.7721V32.7721V32.7721V32.7721V32.7721V31.8662V31.8662V31.8662V31.8662V31.8662V31.8662V31.8662V31.8662V31.8662V31.8662H71.1294V31.8662V31.8662V31.8662V31.8662V31.8662V30.9603V30.9603V30.9603V30.9603V30.9603V30.9603V30.9603V30.9603V30.9603V30.9603V30.9603V30.9603V30.9603V30.9603V30.9603V30.9603V30.0544V30.0544V30.0544V30.0544V30.0544H70.2235V30.0544V30.0544V30.0544V30.0544V30.0544V30.0544V30.0544V30.0544V30.0544V29.1485V29.1485V29.1485H69.3176V29.1485V29.1485H70.2235V29.1485V29.1485V29.1485V29.1485V29.1485V29.1485V29.1485V29.1485V29.1485V29.1485V29.1485H71.1294V29.1485V29.1485V28.2426V28.2426V29.1485V28.2426V28.2426V28.2426V28.2426V28.2426V28.2426V28.2426V28.2426V28.2426V28.2426V28.2426V28.2426V27.3368V27.3368V27.3368V27.3368V27.3368V27.3368V27.3368V27.3368V27.3368V27.3368V27.3368V27.3368V27.3368V27.3368V27.3368V27.3368V27.3368V27.3368V27.3368V27.3368V27.3368V27.3368V27.3368V27.3368V27.3368V27.3368V27.3368V27.3368V27.3368V26.4309V26.4309V26.4309V26.4309V26.4309V26.4309V26.4309V26.4309V26.4309V26.4309V26.4309V26.4309V26.4309V26.4309V26.4309V26.4309V26.4309V26.4309V26.4309V26.4309V25.525V25.525V25.525V25.525V25.525V25.525V25.525V25.525V25.525V25.525V25.525V25.525V25.525L72.0353 24.6191V24.6191V24.6191V24.6191V24.6191V24.6191V24.6191V24.6191V24.6191V23.7132V23.7132V23.7132V23.7132V23.7132V23.7132V23.7132V23.7132V23.7132V23.7132V22.8074V22.8074V22.8074V22.8074V22.8074V22.8074V22.8074V22.8074V22.8074V22.8074V22.8074H71.1294V22.8074V22.8074V22.8074V22.8074V22.8074V22.8074V22.8074V22.8074V22.8074V22.8074V22.8074V22.8074V22.8074V21.9015V21.9015V21.9015V21.9015V21.9015V21.9015V21.9015V21.9015V21.9015V21.9015V21.9015V21.9015V21.9015V21.9015V20.9956V20.9956V20.9956V20.9956V20.9956V20.9956V20.9956V20.9956V20.9956V20.0897V20.0897V20.0897V20.0897V20.0897V20.0897V20.0897V20.0897V20.0897V20.0897V19.1838V19.1838V19.1838V19.1838V19.1838V19.1838V19.1838V19.1838V19.1838V19.1838V19.1838V19.1838V19.1838V19.1838H70.2235V19.1838V19.1838V19.1838V19.1838V19.1838V19.1838V18.2779V18.2779V18.2779V18.2779V18.2779V18.2779V18.2779V18.2779V18.2779V18.2779V18.2779V18.2779V18.2779V18.2779V18.2779V18.2779V18.2779V18.2779V18.2779V18.2779V18.2779V18.2779V17.3721H71.1294V17.3721V17.3721V17.3721V17.3721V17.3721V17.3721V17.3721V17.3721V17.3721V17.3721V17.3721V16.4662V16.4662V16.4662V16.4662V16.4662V16.4662V16.4662V16.4662V16.4662V16.4662V16.4662V16.4662V16.4662V15.5603V15.5603V15.5603V15.5603V15.5603V15.5603V15.5603V15.5603V15.5603V15.5603V15.5603V15.5603V15.5603V15.5603V14.6544V14.6544V14.6544V14.6544H72.0353V14.6544V14.6544H72.9412H75.6588V14.6544H76.5647H78.3765V14.6544H80.1882L81.0941 15.5603L82.9059 14.6544H83.8118V15.5603H84.7176H85.6235V15.5603L87.4353 14.6544H88.3412H89.2471L90.1529 15.5603H91.0588L91.9647 16.4662H92.8706V16.4662V16.4662V16.4662V16.4662H93.7765V16.4662V16.4662V17.3721V17.3721V17.3721H94.6824V17.3721V17.3721V17.3721V16.4662V17.3721V17.3721H95.5882V17.3721V17.3721V17.3721V17.3721V17.3721V18.2779V18.2779H96.4941V18.2779V18.2779V18.2779V18.2779V18.2779L97.4 19.1838V19.1838V19.1838V19.1838V19.1838L98.3059 20.0897L100.118 20.9956L101.024 21.9015V21.9015L102.835 22.8074V22.8074V22.8074L103.741 23.7132L105.553 24.6191V24.6191H106.459V24.6191V24.6191V25.525H107.365L108.271 26.4309L110.082 27.3368L110.988 28.2426L111.894 29.1485V29.1485H112.8V29.1485V30.0544H113.706L114.612 30.9603V30.9603H115.518V31.8662H116.424V31.8662L117.329 32.7721V32.7721H118.235V33.6779H119.141V33.6779L120.047 34.5838V34.5838H120.953V34.5838V35.4897H121.859V35.4897H122.765V35.4897V35.4897V35.4897V35.4897L123.671 36.3956V36.3956V36.3956V36.3956V36.3956V37.3015V37.3015V37.3015V37.3015V37.3015V37.3015H124.576V37.3015V37.3015V37.3015V38.2074H125.482L126.388 39.1132V39.1132V39.1132V39.1132H127.294V39.1132H128.2V39.1132V39.1132H129.106H130.012V39.1132H130.918H131.824H133.635V39.1132V39.1132H134.541H135.447H136.353H137.259H138.165V39.1132V39.1132V38.2074V38.2074V38.2074V38.2074V38.2074V38.2074V38.2074V38.2074V38.2074H139.071V38.2074V39.1132V39.1132V39.1132V39.1132V39.1132H139.976V39.1132V39.1132V39.1132V39.1132H140.882V39.1132V39.1132V39.1132V39.1132V39.1132V39.1132L141.788 40.0191V40.0191V40.0191H142.694V39.1132V39.1132V39.1132V39.1132V39.1132V39.1132L143.6 40.0191V40.0191V40.0191V40.925H144.506H145.412H146.318L147.224 41.8309H148.129H149.035V41.8309H149.941V41.8309H150.847V41.8309V41.8309V41.8309V41.8309V41.8309V41.8309V41.8309H151.753V41.8309V41.8309V41.8309V41.8309V41.8309V41.8309H152.659V41.8309V41.8309V41.8309V41.8309V41.8309V41.8309V41.8309H153.565V41.8309V41.8309V41.8309V41.8309V41.8309V41.8309V41.8309H154.471V40.925V40.925V41.8309V41.8309V41.8309V41.8309V41.8309H155.376V41.8309V41.8309V41.8309V41.8309V41.8309V41.8309H156.282V41.8309V41.8309V42.7368V42.7368V42.7368V42.7368V42.7368H157.188V42.7368V42.7368V42.7368V42.7368V42.7368H158.094V42.7368V42.7368V42.7368V42.7368L159 43.6426V43.6426V43.6426V43.6426V43.6426V43.6426V43.6426H159.906V43.6426V43.6426V43.6426V42.7368V42.7368V42.7368L160.812 43.6426V43.6426V42.7368V42.7368V42.7368V42.7368V42.7368H161.718V42.7368V42.7368V42.7368V42.7368V42.7368V43.6426V43.6426V43.6426H162.624V43.6426V43.6426H163.529V43.6426V43.6426V43.6426V43.6426V43.6426H164.435V43.6426V43.6426V43.6426V43.6426V43.6426V43.6426V43.6426H165.341V43.6426V43.6426V43.6426V43.6426V43.6426V43.6426H166.247V43.6426V43.6426V43.6426V43.6426V43.6426L167.153 45.4544V45.4544V45.4544V45.4544V45.4544V45.4544V45.4544H168.059V45.4544V45.4544V44.5485V44.5485L168.965 42.7368V42.7368V42.7368H169.871V41.8309H170.776V41.8309L171.682 40.925V40.0191L172.588 39.1132L173.494 38.2074V38.2074H174.4V38.2074V37.3015V36.3956V36.3956L177.118 31.8662V31.8662V31.8662L181.647 29.1485L184.365 28.2426V28.2426V27.3368H186.176V26.4309H187.082H187.988L190.706 25.525L191.612 24.6191H192.518V24.6191H193.424L197.047 22.8074L199.765 20.9956H200.671V20.9956V20.9956H201.576V20.9956V20.9956L202.482 20.0897V20.0897V20.0897H203.388V20.0897V20.0897V20.0897V20.0897V20.0897L204.294 20.9956H205.2V20.9956V20.9956V20.9956H206.106V21.9015V21.9015V21.9015V21.9015V22.8074H207.012V23.7132V23.7132V23.7132H207.918V23.7132H208.824V24.6191V24.6191H209.729V24.6191V24.6191V25.525H210.635V25.525V25.525V25.525V26.4309H211.541V26.4309V27.3368V27.3368V27.3368H212.447V28.2426V28.2426H213.353V28.2426V28.2426V28.2426V28.2426V29.1485V29.1485V29.1485V29.1485H214.259V29.1485L215.165 30.0544V30.0544V30.0544H216.071V30.0544V29.1485V29.1485V29.1485H216.976V29.1485V29.1485H217.882V29.1485V29.1485V29.1485H218.788V29.1485V29.1485V30.0544H219.694V30.0544V29.1485V29.1485H220.6V29.1485V29.1485V29.1485V29.1485V29.1485H221.506V29.1485V29.1485V29.1485H222.412V29.1485V29.1485V29.1485V29.1485V29.1485V29.1485H223.318V29.1485V29.1485V29.1485H224.224V29.1485V29.1485V29.1485V29.1485V29.1485V29.1485V29.1485V29.1485H225.129V29.1485L226.035 28.2426V28.2426V28.2426V29.1485V29.1485H226.941V29.1485V29.1485V29.1485V29.1485H227.847V29.1485V28.2426V28.2426L228.753 29.1485V29.1485H229.659V29.1485V29.1485V29.1485V28.2426H230.565V28.2426V28.2426H231.471V28.2426V28.2426V28.2426V28.2426V28.2426V28.2426V28.2426V28.2426V28.2426L232.376 29.1485V29.1485V28.2426V28.2426V28.2426V28.2426H233.282V28.2426V28.2426V28.2426V29.1485V29.1485V29.1485V29.1485V29.1485V29.1485V29.1485V29.1485V29.1485V29.1485V29.1485V29.1485V29.1485V29.1485V29.1485V29.1485V29.1485V29.1485V29.1485V29.1485V29.1485H234.188V29.1485V29.1485V29.1485V29.1485V29.1485V29.1485V29.1485V29.1485V29.1485V29.1485V29.1485V29.1485V29.1485V29.1485V29.1485V29.1485V29.1485V29.1485V29.1485V29.1485V29.1485V29.1485V29.1485V29.1485H235.094V29.1485V29.1485V29.1485V29.1485V29.1485V29.1485V29.1485V29.1485V29.1485V29.1485V29.1485V29.1485V29.1485V29.1485V28.2426H236V28.2426V28.2426V28.2426V28.2426V28.2426V28.2426V29.1485L235.094 30.0544V30.0544V30.0544V30.0544V30.0544V30.0544V30.9603H234.188V31.8662L230.565 36.3956L226.941 41.8309L223.318 46.3603L219.694 52.7015H218.788V52.7015L214.259 57.2309L209.729 61.7603V77.1603V80.7838V107.96V117.019V128.796V130.607V130.607V130.607V131.513V131.513V132.419V138.76V149.631V168.654L213.353 173.184L217.882 179.525L222.412 184.96L226.035 190.396V192.207V192.207V193.113V193.113H225.129V193.113V193.113V193.113V193.113V193.113V193.113V193.113V194.019V194.019V194.019H224.224V194.019V194.019V194.019V194.019V194.925V194.925V194.925V194.925V194.925V194.925V194.925V194.925V194.925H223.318V194.925V194.925V194.925V194.925V195.831V195.831V195.831V195.831V195.831V195.831V195.831V195.831V195.831V195.831V195.831H222.412V195.831V195.831V196.737V196.737V196.737V196.737V196.737V196.737V196.737V196.737V196.737V196.737V196.737V196.737V196.737V196.737V196.737V196.737V196.737V196.737V196.737V196.737V196.737V196.737V196.737V196.737V196.737V196.737L221.506 197.643V197.643V197.643V197.643V197.643V197.643V197.643V197.643V197.643V197.643V197.643V197.643V197.643V197.643V197.643V197.643V197.643V197.643V197.643V198.549V198.549H220.6V198.549V198.549V197.643V197.643V197.643V197.643V197.643V197.643V198.549V197.643V197.643V197.643V197.643V198.549V198.549V198.549V198.549V198.549V198.549V198.549V198.549V198.549V198.549V198.549V198.549V198.549V198.549V198.549V198.549V198.549V198.549V198.549V198.549V198.549V198.549V198.549H221.506V198.549V198.549V198.549V198.549V198.549V198.549V198.549H220.6V198.549V198.549V198.549V198.549V198.549V198.549V198.549V198.549V198.549V199.454V199.454V199.454V199.454V199.454V199.454V199.454V199.454V199.454V199.454V199.454V199.454V199.454V199.454V199.454V199.454V199.454V199.454V199.454V199.454V199.454V199.454V199.454V199.454V199.454V199.454V199.454H219.694V199.454V200.36V200.36V199.454V199.454V199.454H220.6V199.454H219.694V199.454V199.454V199.454V199.454V199.454V199.454V199.454V199.454V199.454V199.454V199.454V199.454V199.454V199.454V199.454V199.454V199.454V200.36V199.454V199.454V199.454V200.36V200.36V200.36V200.36V200.36V200.36V200.36V200.36V200.36V200.36V200.36V200.36H218.788V200.36V200.36V201.266V201.266V201.266V201.266V201.266V201.266V201.266V201.266V201.266V201.266V201.266V201.266V201.266V201.266V201.266V201.266V201.266V201.266V201.266V201.266H217.882V201.266V201.266V201.266V201.266V201.266V201.266V201.266V201.266V202.172V201.266V201.266V201.266V201.266V201.266V201.266V201.266V201.266V201.266V201.266V201.266V201.266V201.266V201.266V201.266V201.266V201.266V201.266V201.266V201.266V201.266V201.266V200.36V201.266V201.266V201.266V201.266V201.266V201.266V201.266V201.266V201.266V200.36V200.36V200.36V200.36V200.36V200.36V200.36V200.36V200.36V200.36V200.36V200.36V200.36V200.36V200.36V200.36V200.36V200.36V200.36V200.36V200.36V200.36V200.36V200.36V200.36V200.36V200.36V200.36H216.976V200.36V200.36V200.36V200.36V200.36V200.36V200.36V200.36V200.36V200.36V200.36V200.36V200.36V200.36V200.36V200.36V201.266V200.36V201.266V201.266V201.266V201.266V201.266V201.266V201.266V201.266V201.266V201.266V201.266V201.266V201.266V201.266V201.266V201.266V201.266V201.266V201.266V201.266V201.266V201.266V201.266V201.266V201.266V200.36V200.36V200.36V200.36V200.36V200.36V200.36V200.36V200.36V200.36V200.36V200.36V200.36V200.36V200.36V200.36V200.36V200.36V200.36V200.36V200.36V200.36V200.36V200.36V200.36V200.36V200.36V200.36V200.36V200.36V200.36V200.36V200.36V200.36V200.36V200.36V200.36V200.36V200.36V200.36V200.36V200.36V200.36V200.36V200.36V200.36V200.36V199.454V199.454V199.454V199.454V199.454V199.454V199.454V199.454V199.454V199.454V199.454V199.454V199.454V199.454V200.36V200.36V200.36V200.36V200.36V200.36V200.36V199.454V199.454V199.454V199.454V199.454V199.454V199.454V199.454V199.454H216.071V199.454V199.454V199.454V199.454V199.454V199.454V199.454V199.454V199.454V199.454V199.454V199.454V199.454V199.454V199.454V199.454V199.454V199.454V199.454V199.454V199.454V199.454V199.454V199.454V199.454V199.454V199.454V199.454V199.454V199.454V199.454V199.454V199.454V199.454V199.454V199.454V199.454V199.454V199.454V199.454V199.454V199.454V199.454V199.454V199.454H215.165V199.454V199.454V199.454V199.454V199.454V200.36V200.36V200.36V200.36V200.36V200.36V200.36V200.36V200.36V200.36V200.36V200.36H214.259V200.36H215.165V200.36H214.259V200.36V200.36V200.36V200.36V200.36V200.36V200.36V201.266V201.266V201.266V201.266V201.266V201.266V201.266V201.266V201.266V201.266V201.266V201.266V201.266V201.266V201.266V201.266V201.266V201.266V201.266H215.165V201.266V201.266V201.266V201.266H214.259H215.165V201.266V201.266V201.266V201.266V201.266V201.266V201.266V201.266V201.266V201.266V201.266V201.266V201.266V201.266V201.266V201.266V201.266V201.266H214.259V201.266V201.266V201.266V201.266V201.266V201.266V201.266V201.266V201.266V201.266V201.266V201.266V201.266V201.266V201.266V201.266V201.266H213.353V201.266V201.266V201.266V201.266V201.266V201.266V201.266V201.266V201.266V201.266V201.266V201.266V201.266V201.266V201.266V201.266V201.266V201.266V201.266V201.266V201.266V201.266V201.266V201.266V201.266V201.266V201.266V201.266V201.266V201.266V201.266V201.266V201.266V201.266V201.266V201.266V201.266V201.266V201.266V201.266H212.447V201.266V201.266H213.353V201.266V201.266V201.266H212.447V201.266V201.266V201.266V201.266V201.266V201.266V201.266V201.266V201.266V201.266V201.266V201.266V201.266V201.266V201.266V201.266V201.266V201.266V201.266V201.266V201.266V201.266V201.266V201.266V201.266V201.266V201.266V201.266V201.266V201.266V201.266V202.172V201.266V201.266V201.266V201.266V201.266V201.266V201.266V201.266V201.266V201.266V201.266V201.266H211.541V201.266V202.172V202.172V202.172V202.172V202.172V202.172V202.172V202.172V202.172V202.172V202.172V202.172V202.172V202.172V202.172V202.172V202.172V202.172V202.172V202.172V203.078V202.172V202.172V202.172V202.172V202.172V202.172V202.172V202.172V202.172V202.172V202.172V202.172V203.078V203.078V202.172V202.172V203.078V203.078V203.078V203.078V203.078V203.078V203.078V203.078V203.078V203.078V203.078V203.078H210.635V203.078V203.078V203.078V203.078V203.078V203.078V203.078V203.078V203.078V203.078V203.984V203.984V203.984V203.984V203.984V203.078V203.078V203.078V203.078V203.078V203.078V203.984V203.984V203.984V203.984V203.984V203.984V203.984V203.984V203.984V203.984V203.984H209.729V203.984V203.078V203.078V203.078V203.078V203.078V203.078V203.078V203.078V203.078V203.078V203.078V203.078V203.078V203.078V203.078V203.078V203.078V203.078V203.078V203.078V203.078V203.078V203.078V203.078V203.078V203.078V203.078V203.078V203.078V203.078V203.078V203.078V203.078V202.172V202.172V202.172V202.172V202.172V202.172V202.172V202.172V202.172V202.172V202.172V202.172V202.172V201.266V201.266V201.266V201.266V201.266V201.266V201.266V201.266V200.36V200.36V200.36V200.36V200.36V200.36V200.36V200.36V200.36V200.36V200.36V200.36V200.36V200.36V200.36V200.36V200.36V200.36V200.36V200.36V199.454V200.36V200.36V200.36V200.36V200.36V199.454H210.635V199.454V199.454V199.454V199.454V199.454V199.454H209.729V199.454V199.454V199.454V199.454V199.454V199.454V199.454V199.454V199.454V199.454V199.454H210.635V199.454H209.729V199.454V199.454V199.454V199.454V199.454V199.454V199.454V199.454V199.454V199.454V199.454V199.454V199.454V199.454V200.36V200.36V200.36V200.36V200.36V200.36V200.36V200.36V200.36H208.824H209.729V200.36V200.36V200.36V200.36H208.824V200.36V200.36V200.36V200.36V200.36V201.266V201.266V201.266V201.266V201.266V201.266V201.266V201.266V201.266V201.266V202.172V202.172V202.172V202.172V202.172V202.172V202.172V202.172V202.172V202.172V202.172V202.172V202.172V202.172V202.172V202.172V202.172V202.172V202.172V202.172V202.172V202.172V202.172V202.172V202.172V202.172V203.078V203.078V203.078V203.078V203.078V203.078V203.078V203.078V203.078V203.078V203.078V203.078V203.078V203.078V203.078V203.078V203.078V203.078V203.078V203.078V203.078V203.984V203.984V203.984V203.984V203.984V203.984V203.984V203.984V203.984V203.984V203.984V203.984V203.984V203.984V203.984V203.984V203.984V203.984V203.984V203.984V203.984V203.984V203.984V203.984V203.984V203.984V203.984V203.984V203.984V203.984V203.984V203.984L207.918 204.89V203.984V203.984V203.984V203.984V203.984V203.984V203.984V203.984V203.984V203.984V203.984V203.984V203.984V203.984V203.984V203.984V203.984V203.984V203.984V203.984V203.984V203.984V203.078V203.078V203.078V203.078V203.078V203.078V203.078V203.078V203.078V203.078V203.078V203.078V203.078V203.078V203.078V203.078V203.078V203.078V203.078V203.078V203.078V203.078V203.078V203.078V203.078V203.078V203.078V203.078V202.172V202.172V202.172V202.172V202.172V202.172V202.172V202.172V202.172V202.172V202.172V202.172V202.172V202.172V202.172V202.172V202.172V202.172V202.172V202.172V202.172H207.012V202.172V202.172V202.172V202.172V202.172V202.172V202.172V202.172V202.172V202.172V202.172V202.172V202.172V202.172V202.172V202.172V202.172V202.172V202.172V202.172V202.172V202.172V202.172V202.172H206.106V202.172V202.172V202.172V202.172V202.172V202.172V202.172V201.266V201.266V201.266V201.266V201.266V201.266V201.266V201.266V201.266V201.266V201.266V201.266V201.266V201.266V201.266V201.266V201.266V201.266V201.266V201.266V201.266V201.266V201.266V201.266V201.266V201.266V201.266V201.266V201.266V201.266V201.266V201.266V201.266V201.266V201.266V201.266V201.266V201.266V201.266V201.266V201.266V201.266V201.266V201.266V201.266V201.266V201.266V201.266H205.2V200.36V200.36V200.36V200.36V200.36V200.36V200.36V200.36V200.36V200.36V200.36V200.36V200.36V200.36V200.36V200.36V201.266V201.266V201.266V201.266V201.266V201.266V201.266V201.266L204.294 200.36V200.36V200.36V200.36V201.266V200.36V200.36V200.36V200.36V200.36V200.36V200.36V200.36H203.388V200.36V200.36V200.36V200.36V200.36V200.36V200.36V200.36V200.36V200.36V200.36V200.36V200.36V201.266V201.266V201.266H204.294H203.388H204.294V201.266V201.266V201.266V201.266V201.266V201.266V201.266V201.266V201.266V201.266V201.266V201.266V201.266V201.266V201.266V201.266V201.266V201.266V201.266V201.266V201.266V201.266V201.266H205.2V201.266V201.266V201.266V201.266V201.266V201.266V201.266V201.266V201.266V201.266V201.266V201.266V201.266V201.266V201.266V201.266V201.266V201.266V201.266V201.266V201.266V201.266V201.266V202.172V202.172V202.172H206.106V202.172V202.172V202.172V202.172V202.172V202.172V202.172V202.172V202.172V202.172V202.172V202.172V202.172V202.172V202.172V202.172V202.172V202.172V202.172V202.172V202.172V202.172V202.172V202.172V202.172H205.2V202.172V203.078V203.078V203.078V203.078V203.078V203.078V203.078V203.078V203.078V203.078V203.078V203.078V203.078V203.078H206.106V203.078V203.078V203.078V203.078V203.078V203.078V202.172V202.172V202.172V203.078V203.078V203.078V203.078V203.078V203.078V203.078H207.012V202.172V203.078V203.078V202.172V202.172V202.172V202.172V202.172V202.172V202.172V202.172V202.172V202.172V202.172V202.172V202.172V202.172V202.172V203.078V203.078V203.078V203.078V203.078V203.078V203.078V203.078V203.078V203.078V203.078V203.984V203.984V203.984V203.984V203.984V203.984V203.984V203.984V203.984V203.984V203.984V203.984V203.984V203.984V203.984V203.984V203.984V203.984V203.984V203.984V203.984V203.078V203.078V203.078V203.078V203.078V203.078V203.078V203.078V203.078V203.078V203.078H206.106V203.078V203.078V203.078V203.078V203.078V203.078V203.078V203.078V203.078V203.078V203.078V203.078V203.078V203.984V203.078V203.984V203.984V203.984V203.984V203.078V203.984V203.984V203.984V203.984H207.012V203.984V203.984V203.984V203.984V203.984V203.984V203.984V203.984V203.984V203.984V203.984V203.984V203.984V203.984V203.984V203.984H206.106V203.984V203.984V203.984V203.984V203.984V203.984V203.984V203.984V203.984V203.984V203.984V203.984V203.984V203.984V203.984V203.984V203.984V203.984V203.984V203.984V203.984V203.984V203.984V203.984V203.984V203.984V203.984V203.984V203.984V203.984V203.984V203.984V203.984V203.984V203.984V203.984V203.984V203.984V203.984V203.984V203.984H207.012V203.984V203.984H206.106H207.012H206.106V203.984V203.984V203.984V203.984V203.984V203.984V204.89V203.984V204.89V204.89V204.89V203.984V203.984H207.012V203.984V203.984V203.984V203.984V203.984V203.984V203.984V203.984V203.984V203.984V203.984V204.89V204.89V204.89V204.89V204.89V204.89V204.89V203.984V203.984V203.984V204.89V204.89V204.89V204.89V204.89V204.89V204.89V204.89V204.89V204.89V204.89V204.89V204.89V204.89V204.89V204.89V204.89V204.89V205.796V205.796V205.796V205.796V205.796V205.796V205.796V205.796V205.796H207.918V205.796V205.796V206.701H207.012V206.701V206.701V206.701V206.701V206.701H207.918H207.012H207.918V206.701V206.701V206.701V206.701V206.701V206.701V206.701H207.012V206.701H207.918V206.701H207.012H207.918V206.701V206.701V207.607V207.607V207.607H207.012H207.918V207.607V207.607V207.607V207.607V207.607V207.607V207.607V207.607V207.607V207.607V208.513V207.607V207.607V207.607V207.607V207.607V208.513V208.513V208.513V208.513V208.513V208.513V208.513V208.513V208.513V208.513V208.513V208.513V208.513V208.513V208.513V208.513V208.513V208.513V208.513V208.513V208.513H207.012V208.513V208.513V208.513V208.513V208.513V208.513V208.513V208.513V208.513V208.513V208.513V208.513V208.513V208.513V208.513V208.513V208.513V208.513V207.607V207.607V208.513V208.513V208.513V208.513V207.607V207.607V208.513V208.513V208.513V207.607V207.607V207.607V207.607V207.607V207.607V207.607V207.607V207.607V207.607V207.607H206.106V207.607V207.607V207.607V207.607V207.607V207.607V207.607V207.607V207.607V207.607V207.607V207.607V207.607V207.607V207.607V208.513V208.513V208.513V208.513V208.513V208.513V208.513V208.513V208.513V208.513V208.513V208.513V208.513V208.513V208.513V208.513V208.513V208.513V208.513V208.513V208.513V208.513V208.513V208.513V208.513V208.513V208.513V208.513V208.513V208.513V208.513V208.513V208.513V208.513V208.513V208.513V208.513V208.513V208.513V208.513V208.513V208.513V208.513V208.513V208.513V208.513V208.513V208.513V208.513V209.419V209.419V209.419V208.513V208.513V208.513V209.419V208.513V209.419V208.513V208.513V208.513V208.513H207.012H206.106V209.419V209.419V209.419V209.419V209.419V209.419V209.419V209.419V209.419V209.419V209.419V209.419V209.419V209.419V209.419V209.419V209.419V209.419V209.419V209.419V209.419V209.419V209.419V209.419V209.419V209.419V209.419V209.419V209.419V209.419V209.419V209.419V209.419V209.419V209.419V209.419V209.419H205.2V209.419V209.419V209.419V209.419V209.419V209.419V209.419V209.419V209.419V209.419V209.419V209.419V209.419V209.419V209.419V209.419V209.419V209.419V209.419V209.419V209.419V209.419V209.419V209.419V209.419V209.419V209.419V209.419V209.419V209.419V209.419V209.419V209.419V209.419V209.419V209.419V209.419V209.419V209.419V209.419V209.419V209.419V209.419V209.419V209.419V209.419V209.419V209.419V209.419V209.419V209.419V209.419V209.419V209.419V209.419V209.419V209.419V209.419V209.419V209.419V209.419V209.419V209.419V208.513V208.513V208.513V208.513V208.513V208.513V208.513V208.513V208.513V208.513V208.513V208.513H204.294V208.513V208.513V209.419V209.419V209.419V209.419V209.419V209.419V209.419V209.419V209.419V209.419V209.419H203.388V209.419V209.419V209.419H204.294V209.419V209.419V209.419V209.419V209.419V209.419V209.419V209.419V209.419V209.419V209.419V209.419V209.419V209.419V209.419V209.419V209.419V209.419V209.419H203.388V209.419V209.419V209.419V209.419V209.419V209.419V209.419V209.419V209.419V209.419V209.419V209.419V209.419V209.419V209.419V209.419V209.419V209.419V209.419V209.419V209.419V209.419V209.419V209.419V209.419V209.419V209.419V209.419V209.419V209.419V209.419V209.419V209.419V209.419V209.419V209.419V209.419V209.419V209.419V209.419V209.419V209.419V209.419V209.419V209.419V209.419V209.419V209.419H202.482V209.419V209.419V209.419V209.419V209.419V209.419V209.419V209.419V209.419V209.419V209.419V209.419V209.419V209.419V208.513V208.513V208.513V208.513V208.513V209.419V209.419V209.419V209.419V209.419V209.419V209.419V209.419V209.419V209.419V209.419V209.419V209.419V209.419V209.419V209.419V209.419V209.419V209.419V209.419H201.576V208.513H202.482V208.513H201.576V208.513V208.513V208.513V208.513V208.513V208.513V208.513V208.513V208.513V208.513V208.513V208.513V208.513V208.513V208.513V208.513V209.419V209.419V209.419V209.419V209.419V209.419V209.419V209.419V209.419V209.419V209.419V209.419V209.419V209.419V209.419V209.419V209.419V209.419V209.419V209.419V209.419V209.419V209.419V209.419V209.419V210.325V210.325V210.325V210.325V210.325H202.482V209.419V209.419V209.419V209.419V209.419V209.419V209.419V209.419V209.419V209.419V209.419V210.325V210.325V210.325V210.325V210.325V210.325V210.325V210.325V210.325V210.325V210.325V210.325V210.325V210.325V210.325V210.325V210.325V210.325V210.325V210.325V210.325V210.325V210.325V210.325V210.325V210.325V210.325V210.325V210.325V210.325V210.325V210.325V210.325V210.325V211.231V211.231V211.231V211.231V211.231V211.231V211.231V211.231V211.231V211.231V211.231V211.231V211.231V211.231V211.231V211.231V211.231V210.325V211.231V211.231V211.231V211.231V210.325V210.325V210.325V210.325V210.325V210.325V210.325V210.325V210.325V210.325H201.576V210.325V210.325V210.325V210.325V210.325V210.325H202.482V210.325V210.325H201.576V210.325V210.325V210.325V210.325V210.325V210.325V210.325V210.325V210.325V210.325V210.325V210.325V210.325V210.325V210.325V210.325V210.325V210.325V210.325V210.325V210.325V210.325V210.325V210.325V210.325V210.325V210.325V210.325V210.325V210.325V210.325V210.325V210.325V210.325V210.325V210.325V210.325V210.325V210.325V210.325V210.325H200.671V210.325V210.325V210.325V210.325V210.325V210.325V210.325V210.325H201.576V210.325V210.325V210.325V211.231V210.325V210.325V211.231V211.231V211.231V211.231V211.231V211.231V211.231V211.231V211.231V211.231V211.231V211.231V211.231V211.231V211.231V211.231V211.231V211.231V211.231V211.231V211.231V211.231V211.231V211.231V211.231V211.231V211.231V211.231V211.231V211.231V211.231V211.231V211.231V211.231V211.231V211.231V211.231H202.482V211.231V211.231V211.231V211.231V211.231V211.231V211.231V211.231V211.231V211.231V211.231V211.231V211.231V211.231V211.231V211.231V211.231H203.388L202.482 212.137H203.388V212.137V212.137V212.137V212.137V212.137V212.137V212.137V212.137V212.137V212.137V212.137V212.137V212.137V212.137V212.137V212.137V212.137V212.137V212.137V212.137V212.137V213.043V213.043V213.043V213.043V213.043V213.043V213.043V213.043V213.043V213.043V213.043V212.137V213.043V213.043V213.043V213.043V213.043V213.043V213.043V213.043V213.043V213.043V213.043V213.043V213.043V213.043V213.043V213.043V213.043V213.043V213.043V213.043V213.043V213.043V213.043V213.043V213.043V213.043V213.043V213.043V213.043V213.043V213.043V213.043V213.043V213.043V213.043V213.043V213.043V213.043V213.043V213.043V213.043V213.043V213.043V213.043V213.043V213.043V213.949V213.949V213.949V213.949H202.482V213.949H203.388V213.949V213.949V213.949V213.949V213.949V213.949V213.949V213.949V213.949V213.949V213.949V213.949V213.949V213.949V213.949V213.949V213.949V213.043V213.043V213.043V213.043V213.043V213.043V213.043V213.043V213.043V213.043V213.043V213.043V213.043V213.043V213.043V213.043V213.043V213.043V213.043V213.043V213.043V213.043V213.043V213.043V213.043V213.043V213.043V213.043V213.043H204.294H203.388V212.137H204.294H203.388V212.137V212.137V212.137V212.137V212.137V212.137V212.137V212.137V212.137H204.294V212.137V212.137V212.137V212.137V212.137V212.137V212.137V212.137V212.137V212.137V212.137V212.137V212.137V212.137V212.137V212.137V212.137V212.137V212.137V212.137V212.137V212.137V212.137V213.043V213.043V213.043H205.2V213.043V213.043V213.043V213.043V213.043V213.043V213.043L204.294 213.949V213.949V213.949V213.949V213.949V213.949H203.388V213.949V214.854V214.854V214.854V214.854V214.854V214.854V214.854V215.76V214.854H202.482V214.854V214.854V215.76V215.76V215.76V215.76H201.576V215.76L200.671 216.666V216.666V216.666V216.666V216.666H199.765V217.572V217.572V217.572V217.572V217.572V217.572V217.572H198.859V218.478V218.478V218.478V218.478V218.478V218.478V218.478V218.478H197.953V218.478V218.478V218.478V218.478V218.478H197.047V218.478V217.572V217.572V217.572V217.572V217.572V217.572H196.141V217.572V217.572V217.572V217.572V217.572V217.572V217.572H195.235V217.572V217.572V217.572H194.329V217.572V217.572L193.424 218.478V218.478H192.518V218.478H191.612V218.478L190.706 219.384V219.384V219.384V219.384V219.384V219.384V219.384V219.384V219.384V219.384V219.384V219.384V219.384V219.384V219.384V219.384H189.8V219.384V219.384V219.384V219.384V219.384V219.384V220.29V220.29V220.29H188.894V220.29V220.29V220.29V220.29V220.29V220.29V220.29V220.29V220.29V220.29V220.29V220.29V220.29V221.196V221.196V221.196V221.196H187.988V221.196V221.196H188.894V221.196V221.196H187.988V222.101H187.082V222.101V223.007V223.007V223.007V223.007V223.913H186.176V223.913V223.913V223.913V223.913V223.913V223.913V223.913V223.913V223.913V224.819V224.819V224.819V224.819V224.819V225.725V225.725V225.725V225.725V225.725V225.725V225.725V225.725V226.631V226.631V226.631V226.631V226.631V226.631V226.631V226.631V227.537V227.537V227.537V227.537V227.537V227.537V227.537V227.537V227.537V228.443V228.443V228.443V228.443H185.271V228.443V229.349V229.349V229.349V229.349V229.349V229.349H186.176V229.349V229.349V230.254V230.254V230.254V230.254V230.254V230.254L187.082 231.16H186.176V231.16V231.16V231.16V231.16V230.254V230.254V231.16L185.271 230.254V230.254V231.16V231.16V231.16V231.16V231.16V231.16V232.066V232.066V232.066V232.066V232.066V232.066V232.066V232.066V232.066V232.972V232.972V232.972V232.066V232.066V232.066H186.176V232.066V231.16V231.16V231.16V231.16V231.16V231.16V231.16V231.16V231.16V231.16V231.16V231.16H187.082V231.16V231.16V231.16V231.16V231.16V230.254V230.254H187.988V230.254V230.254V230.254V230.254V230.254V231.16V231.16V231.16V231.16V231.16V231.16V231.16V231.16H187.082V231.16V231.16V231.16V231.16V231.16V231.16V231.16V231.16L186.176 232.066V232.066V232.066V232.066V232.066V232.066V232.066V232.066V232.066V232.066V232.066V232.972V232.972V232.972V232.972V232.972V232.972V232.972V232.972V232.972H185.271V233.878V233.878V233.878V233.878V233.878V234.784V234.784V234.784V234.784V234.784V235.69V235.69V235.69V235.69V235.69V235.69V235.69V235.69V235.69V235.69V236.596H184.365V236.596V236.596V236.596V236.596V236.596V237.501V237.501V237.501V237.501V237.501V237.501V237.501V237.501V237.501V237.501V237.501V238.407V238.407V238.407V238.407V238.407V238.407V238.407V238.407V238.407V238.407V238.407V238.407V238.407V238.407V239.313V239.313V239.313V239.313V239.313V239.313V239.313V239.313V239.313V239.313V239.313V239.313V239.313V239.313V240.219V240.219H183.459V240.219H182.553V240.219V241.125V241.125V241.125V241.125V241.125H181.647V241.125V241.125V241.125V241.125V241.125V242.031V242.031H180.741V242.031V242.031V242.031V242.031V242.031H179.835V242.031V242.937V242.031V242.031V242.937V242.937V242.937V242.937V242.937V242.937V242.937V242.937V242.937V243.843V243.843V243.843V243.843V243.843V243.843V243.843V243.843H178.929V244.749V244.749V244.749V244.749V244.749V244.749V244.749V244.749V244.749V244.749V244.749V245.654V245.654V245.654V245.654V245.654V245.654V245.654V245.654V245.654V246.56V246.56V246.56H178.024V246.56V246.56V247.466V247.466V247.466V248.372V248.372V248.372V248.372V248.372H177.118V249.278V249.278V249.278V249.278V249.278V249.278V249.278V249.278V250.184V250.184V250.184V250.184V250.184V250.184V250.184V250.184V250.184V250.184V250.184V250.184V250.184V251.09V251.09V251.09V251.09V251.09V251.09V251.09V251.09V251.09V251.996V251.996V251.996V251.996V251.996V251.996V251.996V251.996V251.996V251.996V251.996V252.901H176.212V252.901V252.901V252.901V252.901V252.901V252.901V253.807V253.807V253.807V253.807V253.807V253.807V253.807V254.713V254.713V254.713V254.713V254.713V254.713V254.713V254.713V255.619V255.619V255.619H175.306V255.619V255.619V255.619V255.619V255.619V256.525V256.525V256.525V256.525V256.525V256.525V256.525V257.431V257.431H174.4V257.431V257.431V257.431V258.337V258.337V258.337V258.337V258.337V258.337V258.337V258.337V258.337V258.337V259.243V259.243V259.243V259.243V259.243H173.494V259.243V259.243V259.243V259.243V259.243V259.243V260.149V260.149V260.149V260.149H172.588V260.149V261.054V261.054V261.054H173.494V261.054H172.588V261.054V261.054V261.054V261.054V261.054V261.054V261.96V261.96V261.96V261.96V261.96H171.682V261.96V261.96V261.96V261.96V261.96V261.96V261.96V261.96V262.866V262.866V262.866V262.866V262.866V262.866V262.866V262.866V262.866V262.866V262.866V262.866V263.772H170.776V263.772V263.772V263.772V263.772V263.772V263.772V263.772V263.772V263.772V264.678V264.678V264.678V264.678V264.678V264.678V264.678V264.678V264.678V264.678H169.871V265.584V265.584V265.584V265.584V265.584V265.584V265.584V265.584V265.584V265.584V266.49V266.49V266.49V266.49V266.49V266.49V267.396H168.965V267.396V267.396V267.396V267.396V267.396V267.396V268.301V268.301V268.301V268.301V268.301V268.301V269.207V269.207V269.207V269.207V269.207V269.207V269.207V270.113H168.059V270.113V270.113V270.113V270.113V270.113V271.019V271.019V271.019V271.019V271.019V271.019V271.019V271.925V271.925V271.925V271.925V271.925V271.925V271.925V271.925V272.831V272.831H167.153H168.059H167.153V272.831V272.831V272.831V272.831V272.831V272.831V272.831V272.831V272.831V272.831V272.831V272.831V272.831V272.831V272.831V272.831V272.831V272.831V271.925V271.925V272.831V272.831V272.831V272.831V272.831V272.831V272.831V272.831V272.831H166.247H167.153V272.831V272.831H166.247V272.831V272.831V272.831V272.831V272.831V272.831V272.831V273.737V273.737V273.737V273.737V273.737V273.737V273.737V273.737V273.737V273.737V273.737V273.737V273.737V274.643V274.643H165.341V274.643V274.643V274.643V274.643V274.643V274.643V274.643V274.643V275.549V275.549V275.549V275.549V275.549V275.549V275.549V275.549V275.549V275.549V276.454V276.454V276.454V276.454V276.454V276.454V276.454V276.454V276.454V276.454V276.454V276.454V276.454V277.36V277.36V277.36V277.36H164.435V277.36V277.36V277.36V277.36V277.36V277.36V277.36V277.36V277.36V277.36V277.36V277.36V277.36V277.36V277.36V277.36V276.454V276.454V276.454V276.454V277.36H163.529V277.36V277.36V277.36V277.36V277.36V277.36V277.36V277.36V277.36V277.36V277.36V277.36V277.36V277.36V277.36V278.266V278.266V278.266V278.266V278.266V278.266V278.266V278.266V278.266V278.266V278.266V278.266V278.266V278.266V278.266V278.266V279.172V279.172V279.172V279.172V279.172V279.172V279.172V279.172H162.624V279.172V279.172V279.172V279.172V279.172V279.172V279.172V279.172H161.718V279.172V279.172V279.172V279.172V279.172V279.172V279.172V279.172H160.812V279.172V279.172V279.172V278.266V278.266V278.266V278.266V278.266V278.266V278.266V278.266V278.266V278.266V278.266V278.266V278.266V278.266V278.266V278.266H159.906V278.266V278.266V278.266V278.266V278.266V278.266V278.266V278.266V278.266V278.266V278.266V277.36V277.36V277.36V277.36V277.36V277.36V277.36V277.36V277.36V278.266V278.266V278.266V278.266V278.266V278.266V278.266V278.266V278.266V278.266V278.266V278.266V278.266V278.266V278.266V278.266V278.266V278.266V278.266V278.266V278.266V278.266V278.266H159V278.266V278.266V278.266V278.266V278.266V278.266V278.266V278.266V278.266V278.266V278.266V278.266V278.266V279.172V279.172V279.172V279.172V279.172V279.172V279.172V279.172V279.172V279.172V279.172V279.172V279.172V279.172V279.172V279.172V279.172V279.172V279.172V279.172V279.172V279.172V279.172H158.094V279.172V279.172V279.172V279.172V279.172V279.172V279.172V280.078V280.078V280.078V280.078V280.078V280.078V280.078V280.078V280.078V280.078V280.078V280.078V280.078V280.078V280.078V280.078V280.078V280.078H157.188V280.078V280.078V280.078V279.172V279.172V279.172V279.172V279.172L154.471 277.36L147.224 271.925L136.353 264.678H135.447L133.635 262.866L122.765 254.713L117.329 251.09H116.424L115.518 248.372V247.466V247.466V246.56V246.56H113.706V245.654V245.654H112.8V245.654L111.894 246.56V246.56H110.988V245.654H111.894V244.749V244.749V244.749H110.988V244.749V244.749V243.843L112.8 242.031L113.706 241.125V241.125L114.612 240.219L113.706 236.596V235.69V232.972L112.8 232.066H111.894L110.082 231.16L109.176 230.254H108.271L107.365 229.349L106.459 228.443V228.443H105.553L104.647 227.537V227.537H103.741L102.835 226.631H101.929L101.024 225.725L100.118 224.819V224.819L95.5882 223.007L93.7765 221.196L91.9647 220.29L90.1529 219.384H89.2471L88.3412 218.478V218.478H87.4353L82.9059 215.76L80.1882 213.949L78.3765 213.043L77.4706 212.137V212.137L75.6588 211.231L70.2235 208.513L69.3176 207.607L67.5059 206.701L65.6941 205.796L64.7882 204.89L58.4471 202.172L57.5412 201.266L55.7294 200.36L53.9176 199.454L52.1059 197.643L50.2941 196.737L48.4824 195.831L47.5765 194.925H46.6706L44.8588 194.019L43.0471 193.113L41.2353 192.207L40.3294 191.301L39.4235 190.396H38.5176L37.6118 189.49H36.7059V189.49L33.9882 187.678H33.0824L32.1765 186.772L31.2706 185.866H30.3647V185.866L29.4588 184.96V184.96L27.6471 184.054H26.7412V183.149H25.8353H24.9294V182.243H24.0235H23.1176V181.337L21.3059 180.431V180.431H20.4V179.525H19.4941L17.6824 178.619L14.9647 176.807L13.1529 175.901L10.4353 174.09V174.09H9.52941V174.09V174.09V174.09V174.09V174.09V174.09V174.09V174.09V174.09H10.4353L9.52941 173.184V173.184V173.184V173.184V173.184V173.184V173.184V173.184V173.184V173.184V173.184V173.184V173.184H8.62353V173.184V173.184V173.184V173.184V173.184V173.184V173.184V173.184V173.184V174.09V174.09V174.09V174.09V174.09V174.09V174.09V174.09V173.184V173.184V173.184V173.184V173.184V173.184H7.71765V173.184V173.184V173.184V173.184V173.184V173.184V173.184V173.184V173.184V173.184V173.184V173.184H8.62353V173.184V173.184V173.184V173.184V173.184V173.184V173.184V173.184V173.184V173.184V173.184V173.184V173.184V173.184V173.184V173.184H9.52941V173.184V173.184V173.184V173.184V173.184V172.278V172.278V172.278V172.278V172.278V172.278V172.278V172.278V173.184V173.184V173.184V173.184V173.184V173.184H10.4353V173.184V173.184V173.184V173.184V173.184V173.184V173.184V173.184V173.184V173.184V173.184V173.184V173.184V173.184V173.184V173.184V173.184V173.184V173.184V173.184V173.184V173.184V173.184V173.184V173.184V173.184V172.278V172.278V172.278V172.278V172.278V172.278V172.278V172.278V172.278V172.278V172.278V172.278V172.278V172.278V172.278V172.278V172.278V172.278V172.278V172.278V172.278V171.372V171.372V171.372V171.372V170.466V170.466V170.466V170.466H11.3412V170.466V170.466V170.466V170.466V170.466V170.466V169.56V169.56H12.2471V169.56V169.56V169.56V169.56V169.56V169.56V169.56V169.56V169.56V169.56V169.56V169.56V169.56V169.56V169.56V169.56V169.56V169.56V169.56V169.56V169.56V169.56V169.56V169.56V169.56V169.56V169.56V168.654V168.654V168.654V168.654V168.654V168.654V168.654V168.654V168.654V168.654V168.654V168.654V168.654V168.654V168.654H11.3412V168.654V168.654V168.654V168.654V168.654V168.654V168.654V168.654V168.654V168.654V168.654V168.654V168.654V168.654V168.654V168.654V168.654H10.4353V168.654V167.749V167.749V167.749V167.749V167.749V167.749V167.749V167.749V167.749V167.749V167.749V167.749V167.749V167.749V167.749V167.749V167.749H9.52941V167.749V167.749V167.749V167.749V167.749V167.749V167.749V167.749V167.749V167.749V167.749V167.749H8.62353V167.749V167.749V166.843V166.843V166.843V166.843V166.843V166.843V166.843H9.52941V166.843V166.843V166.843V166.843V165.937H8.62353V166.843V166.843V166.843V166.843V165.937V165.937V165.937V165.937V165.937V165.937V165.937V165.937V165.937V165.937V165.937V165.937V165.031V165.031V165.031V165.031V165.031V165.031V165.031V165.031V165.031V165.031V165.031V165.031V165.031H7.71765V165.031V165.031V165.937V165.937V165.031V165.031V165.031V165.031V165.031V165.031V165.031V165.031V165.031V165.031V165.031H8.62353V165.031V165.031V165.031V165.031V165.031V165.031V165.031V165.031V165.031V165.031V165.031V165.031V164.125V164.125V164.125V164.125V164.125V164.125V164.125V164.125V164.125V164.125V164.125V164.125V164.125V164.125V164.125V164.125V163.219V163.219V163.219V163.219V163.219V163.219V163.219V163.219V163.219V163.219V163.219V163.219V163.219V163.219V163.219V162.313V163.219V162.313V162.313V162.313V162.313V162.313V162.313V162.313V162.313V162.313V162.313V162.313V162.313H9.52941V162.313V162.313V162.313V162.313V161.407V161.407V161.407V161.407V161.407V161.407V161.407V161.407V161.407V161.407V161.407V161.407V161.407V161.407V161.407H8.62353V161.407V161.407H9.52941V161.407V161.407H8.62353V161.407V161.407V161.407V160.501V160.501V160.501V160.501V160.501V160.501V160.501V160.501V160.501V160.501V160.501V160.501V160.501V160.501V160.501H9.52941V160.501V160.501V160.501V160.501V160.501V160.501V160.501V160.501V160.501V160.501V160.501V160.501V160.501V160.501H10.4353V160.501V159.596V159.596V159.596V159.596V159.596V159.596V159.596V159.596V159.596V159.596V159.596V159.596V159.596V159.596V159.596V159.596V160.501V160.501V159.596H11.3412V159.596V159.596V159.596V159.596V159.596V159.596V159.596V159.596V159.596V159.596V159.596V159.596V159.596V159.596V159.596V159.596V159.596V159.596V158.69V158.69V158.69V158.69V158.69V158.69V158.69V158.69V157.784V157.784V157.784H12.2471V157.784V157.784V157.784V157.784V157.784V157.784V157.784V157.784V157.784V156.878V156.878V156.878V156.878V156.878V156.878V156.878V156.878V156.878V156.878V156.878V156.878V156.878H13.1529V156.878V156.878V155.972V155.972V155.972V155.972H12.2471V155.972V155.972V155.972V155.972V155.972V155.972V156.878V156.878V156.878V156.878H11.3412V156.878V156.878V156.878V156.878V156.878V156.878V156.878V156.878V156.878V156.878V156.878H10.4353V156.878V156.878V156.878V156.878V156.878V156.878V156.878V156.878V155.972V155.972V155.972V155.972V155.972V155.972V155.972V155.972V155.972V155.972H11.3412V155.972V155.972V155.972V155.972V155.972V155.972V155.066V155.066V155.066V155.066V155.066V155.066V155.066V155.066V155.066V155.066H12.2471V155.066V155.066V155.066V155.066V155.066V155.066V155.066V155.066V155.066V155.972V155.972V155.972V155.972H13.1529V155.972V155.066V155.066V155.066V155.066V155.066V155.066V155.066V155.066V155.066V155.066V154.16V154.16V154.16V154.16V154.16V154.16V154.16V154.16V154.16V154.16V154.16V155.066V155.066V155.066V155.066V155.066V155.066V155.066V155.066V155.972V155.972V155.972V155.972V155.972V155.972V155.972V155.972V155.972V155.972V155.972V155.972V155.972V156.878V156.878V156.878V156.878V156.878V156.878V156.878V156.878V156.878V156.878V156.878V156.878H14.0588V156.878V156.878V156.878V156.878V156.878V156.878V156.878V156.878V156.878V156.878V156.878V156.878V156.878V156.878V156.878V156.878V156.878V156.878V156.878V156.878H14.9647V156.878V156.878V156.878V156.878V156.878V157.784V157.784V156.878V157.784V156.878V157.784V157.784V157.784V157.784V157.784V157.784V157.784V157.784V157.784V157.784V157.784V157.784V157.784V157.784V157.784V157.784H15.8706V157.784V157.784V157.784V157.784V157.784V157.784V157.784V157.784V157.784V157.784V157.784V157.784V157.784V157.784V157.784V157.784V157.784V157.784V157.784V157.784V157.784V157.784V157.784V157.784V156.878V156.878V156.878V156.878V157.784V157.784V157.784H16.7765V157.784V157.784V157.784V157.784V158.69V158.69V158.69V158.69V158.69V158.69V158.69V158.69V158.69V157.784V157.784V157.784V157.784H17.6824V157.784V157.784V157.784V157.784V157.784V157.784V157.784V157.784V157.784V157.784V157.784V157.784V157.784V157.784V157.784V157.784V157.784V157.784V156.878V156.878V156.878V156.878V156.878V156.878V156.878V156.878V156.878V156.878V156.878V157.784V157.784V156.878V157.784V157.784H18.5882V157.784V157.784V156.878V156.878V157.784V157.784V157.784V157.784V157.784V157.784V157.784V157.784V157.784V157.784V157.784V157.784V157.784V157.784V157.784V158.69V158.69V158.69V158.69V158.69H19.4941V158.69V158.69V158.69V158.69V158.69V158.69V158.69V158.69V158.69V158.69V158.69V158.69H18.5882V158.69V158.69V159.596V159.596V159.596V159.596V159.596H19.4941V159.596V159.596V159.596V159.596V159.596V159.596V159.596V159.596V159.596V159.596H20.4V159.596V159.596V159.596V158.69V158.69V158.69V158.69V158.69H21.3059V158.69V158.69V158.69V158.69V158.69V158.69V158.69V158.69V158.69V158.69V158.69V158.69V158.69V158.69V158.69V158.69V158.69V157.784V157.784V157.784V157.784V156.878V156.878H20.4V156.878V156.878V156.878V156.878V155.972V155.972V155.972H19.4941V155.972V155.972V155.972V155.972V155.066V155.066H20.4V155.066V155.066V155.066V155.066V154.16V154.16V154.16V154.16V154.16H21.3059V154.16V154.16V154.16V154.16V154.16V154.16V154.16H22.2118V154.16V153.254V154.16V154.16V153.254H23.1176V153.254V154.16V154.16V154.16H24.0235V154.16V154.16H24.9294V154.16V154.16V154.16V154.16V154.16V154.16V154.16H25.8353V154.16V154.16V154.16V154.16V154.16V154.16V154.16V154.16V154.16V154.16V154.16V154.16H26.7412V154.16V154.16V154.16V154.16V154.16V154.16V154.16V154.16H27.6471V154.16V154.16V154.16V154.16V154.16V154.16H28.5529V154.16V154.16V154.16V154.16V154.16V154.16V154.16V154.16V154.16H29.4588L28.5529 153.254V154.16V154.16V153.254V153.254V153.254V153.254V153.254V153.254V153.254V153.254V153.254V152.349V152.349V152.349V152.349H29.4588V152.349V152.349V152.349V152.349V152.349V152.349V152.349V152.349L30.3647 153.254V153.254V153.254V153.254V153.254V153.254H31.2706V153.254V153.254V153.254V153.254V152.349V152.349V152.349V152.349V152.349V152.349H32.1765V152.349V152.349V152.349V152.349V152.349H31.2706V152.349V151.443V151.443V151.443V151.443V151.443V151.443V151.443V151.443V151.443V151.443V151.443V151.443V151.443V151.443V151.443V151.443V151.443V151.443V151.443V151.443H30.3647V151.443V151.443V151.443V151.443V151.443V151.443V151.443V151.443V151.443V151.443V151.443V151.443V151.443V150.537V150.537V150.537V150.537V150.537V150.537V150.537V150.537V149.631V149.631H29.4588V149.631V149.631V149.631V149.631V149.631V149.631V149.631V149.631L28.5529 148.725V148.725V148.725V148.725V148.725V148.725V148.725V148.725V148.725V148.725V148.725V148.725V148.725V148.725V148.725V148.725V148.725V148.725V148.725V148.725V148.725V148.725V148.725V148.725V148.725H27.6471V148.725V148.725V147.819V147.819H28.5529V147.819V147.819V147.819V147.819V147.819V147.819V147.819V147.819V147.819V147.819V147.819V147.819V147.819V147.819V147.819V147.819V147.819V147.819V146.913V146.913V146.913V146.913V146.913V146.913V146.913V146.913V146.913V146.913V146.913V146.913V146.913V146.913V146.913V146.913V146.913V146.913V146.913H27.6471V146.913V146.913V146.913V146.913V146.913V146.913V146.913V146.913V146.913H26.7412V146.913V146.913V146.913V146.913V146.913V146.913V146.913V146.913V146.913V146.913H25.8353V147.819V147.819V147.819V147.819V147.819V147.819H24.9294V147.819V147.819V147.819V147.819V147.819V147.819V147.819V147.819V147.819V148.725V148.725V148.725V148.725V148.725V148.725V148.725V148.725V148.725H24.0235V148.725V148.725V148.725V148.725V148.725V148.725V147.819V147.819V147.819V147.819V147.819V148.725V148.725V148.725V147.819V147.819L23.1176 148.725V148.725V148.725V148.725V148.725V148.725V147.819V147.819V147.819V148.725V148.725V148.725V148.725V148.725V148.725V148.725V148.725V148.725H22.2118V148.725V148.725V148.725V148.725V148.725V149.631V149.631V149.631V149.631V149.631V149.631V149.631V149.631V149.631V149.631H21.3059V149.631V149.631V149.631V149.631V149.631V149.631V149.631V149.631V149.631V149.631V149.631V149.631V149.631H20.4V149.631V149.631V149.631V149.631V149.631V149.631V148.725V148.725V148.725V148.725V148.725V148.725H19.4941V148.725V148.725V148.725V149.631V149.631V149.631V148.725V149.631H18.5882V149.631V149.631V149.631V149.631V149.631V149.631V149.631V149.631V149.631V149.631V149.631V149.631V149.631V149.631V149.631V149.631V149.631H17.6824V149.631V149.631V149.631V149.631V149.631V149.631V149.631H16.7765V149.631V149.631V149.631V149.631V149.631V149.631V149.631V149.631V150.537V150.537V150.537V150.537V150.537V150.537V150.537V150.537V150.537V150.537H17.6824V150.537V151.443V151.443V151.443V151.443V151.443V150.537V150.537V150.537V150.537V150.537V150.537V151.443V151.443V151.443V151.443H18.5882V151.443V151.443V151.443V151.443V151.443V151.443V152.349V152.349V152.349V152.349V152.349V152.349V152.349V152.349V152.349V152.349V152.349V153.254V153.254V153.254H17.6824V153.254V153.254V153.254V153.254V153.254V153.254V153.254V153.254V153.254V153.254V153.254V153.254V153.254V153.254V153.254L16.7765 154.16V154.16V154.16V154.16V154.16V154.16V154.16V154.16V154.16V154.16V154.16V154.16V154.16V154.16V154.16V154.16V154.16H15.8706V155.066V155.066V155.066V155.066V155.066V155.066V155.066V155.066V155.066V155.066V155.066V155.066V155.066V155.066V155.066V155.066V155.066V155.066V155.972V155.972V155.972V155.972V155.972V155.972V155.972V155.972V155.972V155.972V155.972V155.972H14.9647V155.972V155.972V155.972V155.972V155.972V155.972V155.972V155.972V155.972V155.972V155.972V155.066V155.066V155.066V155.066V155.066V155.066V155.066V155.066V155.066V155.066V155.066V155.066V155.066V155.066V155.066V155.066V155.066H15.8706V155.066V155.066V155.066V155.066V155.066V155.066V154.16H14.9647V154.16V154.16V154.16V154.16V154.16V154.16V154.16V154.16V154.16V154.16V154.16V154.16V154.16V153.254V153.254V153.254V153.254H14.0588V153.254V153.254V153.254V153.254V153.254V153.254V153.254H14.9647V153.254H14.0588V153.254V153.254V153.254V153.254H14.9647V153.254V153.254V153.254V153.254H14.0588V153.254V153.254V153.254V153.254V153.254V152.349V152.349V152.349V152.349V152.349V152.349V152.349V152.349V152.349V152.349V152.349V152.349V152.349V152.349V152.349V152.349H14.9647V152.349V152.349V151.443V151.443V151.443V151.443V151.443V151.443H14.0588V151.443V151.443V151.443V151.443V151.443V151.443V151.443V151.443V151.443V151.443V151.443V151.443L13.1529 150.537V150.537V150.537V150.537V151.443V151.443V151.443V151.443V151.443V151.443V151.443V151.443V151.443V151.443V151.443V151.443V150.537V150.537V150.537H12.2471V150.537V150.537V150.537V150.537V150.537V150.537H13.1529H12.2471V150.537V150.537V150.537V150.537V149.631V149.631V149.631V149.631V149.631V149.631V149.631V149.631V149.631V149.631V149.631V149.631V149.631V149.631H11.3412V149.631V149.631V149.631V149.631V149.631V149.631V149.631V149.631V149.631V150.537V150.537V150.537V150.537V150.537V149.631V149.631V149.631V149.631V149.631H10.4353V149.631V149.631V149.631V149.631V149.631V149.631V149.631V149.631V149.631V149.631V149.631V149.631V149.631V149.631V149.631V149.631V149.631V149.631V149.631V149.631V148.725V148.725V148.725V148.725H9.52941V148.725V148.725V148.725V148.725V148.725V148.725V148.725V148.725V148.725V148.725V148.725V148.725V148.725V148.725V148.725V148.725V147.819V147.819V147.819V147.819H10.4353V147.819V147.819V147.819V147.819V147.819V147.819V147.819V147.819V147.819V147.819V147.819V147.819V147.819V147.819V147.819V147.819V147.819V147.819V147.819V147.819V147.819H11.3412V147.819V147.819V147.819V147.819V147.819V147.819V146.913H10.4353V147.819V147.819V147.819V147.819V146.913V146.913V147.819V146.913V146.913V146.913V146.913V146.913V146.913V146.913V146.913V146.913V146.913V146.913H11.3412V146.913V146.913V146.913V146.913V146.913V146.913V146.913V146.007V146.007H10.4353V146.007V146.007V146.007V146.007V146.007V146.007V146.007V146.007V146.007H11.3412V146.007V146.007V146.007V146.007V146.007H10.4353V146.007V146.007V146.007V146.007V146.007V146.007V146.007V146.007V146.007V146.007V146.007V146.007H9.52941V146.007V146.007V146.007V146.007V146.007V146.007V146.007V146.007H8.62353V146.007H9.52941V146.007V146.007V146.007V146.007V146.007V146.007V146.007V146.913V146.913V146.913V146.913V146.913V146.913V146.913V146.913V146.913V146.913V146.913V146.913V146.913H8.62353V146.913V146.913V146.913V146.913V146.913H9.52941V146.913V146.913V146.913V146.913V146.913V146.913V146.913H8.62353V146.913V146.913V146.913V147.819V147.819V147.819V147.819V147.819V147.819V147.819V146.913V146.913V146.913V146.913V146.913V146.913V146.913V146.913V146.913V146.913V146.913V146.913V146.913V146.913V146.913V146.913V146.913V146.913V146.913V146.007V146.007V146.007V146.007V146.007V146.007V146.007V146.007V146.007V146.007V146.007V146.007V146.007H7.71765V146.007V146.007V146.007V146.913V146.007V146.007V146.007V146.007V146.007V146.007V146.007V146.007V146.007V146.007V146.007V146.007V146.007V146.007V146.007V146.007V145.101V145.101V145.101V145.101V145.101V145.101V145.101V145.101V145.101V145.101H6.81176V145.101V145.101V145.101V145.101V145.101V145.101V145.101V145.101V145.101V145.101V145.101V145.101V145.101V145.101V145.101V145.101V145.101V144.196V144.196V144.196V144.196V144.196V144.196V144.196V144.196V144.196V144.196V144.196V144.196V143.29V143.29V143.29V143.29V143.29V143.29V143.29V143.29V143.29V143.29V143.29H5.90588V142.384V142.384V142.384V142.384V142.384V142.384V142.384H5V142.384V142.384V142.384H5.90588V142.384V142.384L5 141.478H5.90588V142.384V141.478V141.478V141.478V141.478V141.478V141.478H5V141.478V141.478V141.478V141.478H5.90588V141.478V141.478H5V141.478V141.478V141.478V141.478V141.478H5.90588V141.478V141.478V141.478V141.478V141.478V141.478V141.478V141.478V141.478V140.572H6.81176V140.572V140.572V140.572H5.90588V140.572H6.81176V140.572V140.572V140.572H5.90588V140.572V140.572H6.81176H5.90588V140.572H6.81176V140.572V140.572V140.572V140.572V139.666V139.666V139.666V139.666V139.666V139.666V139.666V139.666V139.666V139.666V139.666V139.666H5.90588V139.666V139.666H6.81176V139.666V139.666V139.666V139.666V139.666V138.76V138.76V138.76V138.76V138.76V138.76V138.76V138.76V138.76V138.76V138.76V138.76V138.76V138.76V137.854V137.854V137.854V137.854V137.854V137.854V137.854V137.854V137.854V136.949Z" fill="#FDAB45"/>
</svg>
