<svg width="242" height="292" viewBox="0 0 242 292" fill="none" xmlns="http://www.w3.org/2000/svg">
<path fill-rule="evenodd" clip-rule="evenodd" d="M154.151 165.148V165.148V165.148V165.148V165.148L156.16 167.157V167.157V167.157V167.157V167.157V167.157V167.157V167.157V167.157V167.157V167.157V167.157V167.157V167.157V167.157V167.157V167.157V167.157H154.151V167.157V165.148V165.148V165.148V165.148V165.148V165.148Z" fill="#FDAB45"/>
<path fill-rule="evenodd" clip-rule="evenodd" d="M168.204 169.101V169.101H164.187V169.101H162.178V169.101V169.101H160.17V169.101L162.178 167.093H164.187V165.084H162.178V165.084L160.17 163.075V163.075V161.067L158.161 159.058H156.152H158.161V157.049H160.17V157.049V157.049V157.049V157.049V157.049H162.178V159.058V159.058V157.049V157.049H164.187V157.049V157.049V157.049V157.049L166.196 155.04V157.049V157.049H168.204V157.049V157.049V157.049V157.049V155.04V155.04H170.213H168.204V155.04V155.04V155.04V155.04V153.032V153.032V153.032V153.032V153.032L166.196 151.023V151.023V151.023H164.187V153.032V153.032V153.032V155.04V155.04V155.04V155.04V157.049V157.049V157.049V157.049V157.049H162.178V157.049V159.058V157.049H160.17V157.049V157.049V157.049V157.049H158.161V159.058H156.152V159.058V159.058H154.143V159.058V161.067V161.067V161.067L152.135 159.058L150.126 161.067H148.117V161.067V161.067V161.067V161.067V161.067V161.067V161.067V159.058V159.058V159.058V159.058V159.058V159.058V159.058V159.058L150.126 157.049V157.049V157.049H148.117V157.049V157.049V157.049H146.109V157.049V157.049V157.049V159.058V159.058V159.058V159.058V159.058V159.058V159.058V159.058V159.058V159.058V159.058V161.067V161.067V161.067V161.067V161.067H148.117V163.075V163.075V163.075V163.075V165.084H150.126L148.117 167.093V167.093V167.093V169.101V169.101V169.101V169.101H146.109V169.101V169.101V169.101V169.101V169.101H144.1V169.101V169.101V171.11V171.11V171.11H142.091V171.11V171.11V173.119V173.119V173.119V173.119V175.127V175.127V175.127V175.127V175.127V175.127V175.127V175.127V175.127V175.127V175.127V175.127V175.127V177.136V177.136V177.136V177.136V179.145V179.145V179.145V179.145V181.154V181.154V181.154V181.154V181.154V181.154V181.154V183.162V183.162H140.083V183.162V183.162V183.162V183.162V185.171V185.171H138.074V185.171V185.171V187.18V187.18V187.18V187.18V187.18V187.18V187.18V187.18V187.18H136.065V187.18V187.18V187.18V187.18H134.057V187.18V187.18H132.048V187.18V187.18V187.18V187.18V189.188V189.188V189.188H130.039V189.188V189.188V189.188V189.188V191.197V191.197V191.197H128.03V191.197V191.197V191.197V191.197V191.197V193.206V193.206V193.206V193.206H126.022V193.206V193.206H124.013V193.206V193.206V193.206V193.206V193.206V193.206V193.206H122.004V193.206V193.206V193.206V193.206V193.206V193.206H119.996V195.214V195.214V195.214V195.214V195.214V195.214V195.214H117.987V195.214V195.214V197.223H115.978V197.223V197.223V197.223V197.223V197.223V197.223V197.223H113.97V197.223V197.223V197.223V197.223V197.223H111.961V199.232V199.232V199.232V199.232H109.952V199.232V199.232V199.232V199.232V199.232V199.232V199.232V199.232V199.232H107.943V199.232V199.232V199.232V199.232V199.232V199.232V199.232V199.232V199.232V199.232H105.935V199.232V199.232V199.232V199.232V199.232V199.232V199.232V199.232V199.232V201.24V201.24V201.24H103.926V201.24V201.24V201.24V201.24V201.24V201.24V201.24H101.917V201.24V201.24V201.24V201.24V201.24H99.9087V201.24V201.24V201.24V201.24H97.9V201.24V201.24V201.24V201.24H95.8913V201.24V201.24V201.24V201.24V201.24H93.8826V201.24V201.24V201.24V201.24V201.24H91.8739V201.24V201.24V201.24H89.8652V201.24V201.24V201.24H87.8565V203.249V203.249V203.249V203.249H85.8478V203.249V203.249V203.249H83.8391V203.249V203.249V205.258V205.258H81.8304V205.258V205.258V205.258V205.258V205.258V205.258V205.258V205.258V205.258V205.258V205.258V205.258V205.258V205.258V205.258V205.258V205.258V205.258V205.258V205.258V205.258V205.258V207.267H79.8217V207.267V207.267V207.267V207.267V207.267V207.267V207.267V207.267V207.267V207.267V207.267V207.267V207.267V207.267V209.275V209.275V209.275V209.275L81.8304 207.267V207.267V207.267L79.8217 209.275V209.275H77.813V209.275V209.275V209.275V209.275V209.275H75.8043V209.275V209.275V209.275V209.275H73.7957V209.275V211.284V211.284V211.284V209.275V209.275V209.275V209.275V209.275V209.275V209.275V209.275V209.275V207.267V207.267V207.267V207.267V207.267V207.267V205.258V207.267H75.8043V207.267V207.267V207.267V207.267V207.267V207.267H77.813V207.267V207.267V207.267V205.258V205.258V205.258V205.258V203.249V203.249H75.8043V203.249H73.7957V203.249V203.249V203.249V205.258H71.787V205.258V205.258V205.258V205.258V205.258V205.258V205.258H69.7783V205.258V205.258V205.258V205.258V205.258V207.267V205.258V205.258H67.7696V205.258V205.258V205.258V205.258V205.258H65.7609V203.249V203.249H63.7522V203.249V203.249V201.24V201.24H61.7435V201.24H59.7348V203.249V203.249H57.7261V203.249V203.249V205.258H55.7174V205.258V203.249H53.7087V205.258V207.267V207.267V207.267V207.267V207.267V209.275V209.275L51.7 207.267V207.267V207.267V207.267V207.267H49.6913V207.267V209.275V209.275V209.275V209.275V209.275V209.275V209.275H47.6826V209.275V209.275V209.275V209.275V209.275V207.267V207.267H45.6739V207.267V207.267V207.267H43.6652V207.267V207.267V207.267H41.6565V207.267V207.267V205.258V205.258V207.267V205.258H39.6478V205.258V205.258V205.258V205.258V205.258V205.258V205.258V205.258H37.6391V205.258V203.249V203.249V203.249V203.249H35.6304V203.249V203.249V203.249V203.249V203.249V203.249V203.249V203.249L33.6217 201.24V201.24V203.249V203.249V201.24H31.613V201.24V201.24V201.24V201.24V201.24V201.24V201.24V201.24H29.6043V201.24V201.24V201.24V201.24V201.24V201.24V201.24V201.24V201.24H27.5957V201.24V201.24V201.24V201.24V201.24V201.24V201.24V201.24H25.587V201.24V199.232V199.232V199.232V199.232V199.232V199.232V199.232H23.5783V199.232V199.232V197.223V197.223V197.223V197.223H21.5696V197.223V197.223V197.223V197.223V197.223V197.223V197.223V197.223V197.223V197.223V197.223V197.223V197.223V195.214V195.214H19.5609V195.214V195.214V195.214V195.214V195.214V195.214V195.214V195.214V195.214V195.214V195.214V195.214V195.214V195.214V195.214V195.214V193.206V193.206V193.206V193.206V193.206V193.206V193.206V193.206V193.206V193.206V191.197V191.197V191.197H17.5522V191.197V191.197V191.197V191.197V189.188V189.188V189.188V189.188V189.188V189.188V189.188V187.18V187.18V187.18V187.18V187.18V187.18V187.18V187.18V187.18V187.18V187.18V187.18V185.171V185.171V185.171V185.171V185.171V185.171V185.171V183.162H15.5435V183.162V183.162V183.162V183.162V183.162V183.162V183.162V183.162V183.162V183.162V183.162V183.162V183.162V183.162V183.162V183.162H13.5348V183.162V183.162V183.162V183.162V183.162V183.162V183.162V183.162V183.162V183.162V183.162V183.162V183.162V181.154V181.154V181.154V181.154V181.154V181.154V181.154V181.154V181.154H11.5261V181.154V181.154V181.154V179.145V179.145V179.145V179.145V179.145V179.145V179.145V179.145V179.145V179.145V179.145V179.145V179.145V179.145V179.145V179.145V177.136H9.51739V177.136V177.136V177.136V177.136H11.5261V177.136V177.136V177.136V177.136V177.136V177.136V175.127V175.127V175.127V175.127V175.127V175.127V175.127V173.119V173.119H9.51739V173.119V173.119V173.119V171.11V171.11V171.11V171.11V171.11V171.11V171.11V171.11V171.11V171.11V171.11V171.11V171.11V171.11V171.11V171.11V171.11V171.11V171.11V171.11V169.101V169.101V169.101V169.101V169.101V169.101V169.101V169.101V169.101V167.093V167.093V167.093V167.093V167.093V167.093V167.093V167.093V167.093V165.084V165.084V165.084V165.084V165.084V165.084V165.084V165.084V165.084V165.084V165.084V165.084V165.084V165.084V165.084L7.5087 163.075H9.51739H7.5087V163.075V163.075V163.075V163.075V163.075V163.075V163.075V163.075V163.075V163.075V163.075V163.075V163.075V163.075V163.075V161.067V161.067V161.067V161.067H5.5V161.067V161.067V161.067V161.067V161.067V161.067V161.067V161.067V159.058V159.058V159.058V159.058V159.058V159.058V159.058V159.058V159.058V159.058V159.058V157.049V157.049V157.049V157.049V157.049V157.049V155.04V155.04V155.04V155.04V155.04V155.04V155.04V155.04V155.04V155.04L7.5087 153.032V153.032H5.5V153.032H7.5087V153.032V153.032V153.032V153.032V153.032V153.032V153.032V153.032V153.032V153.032V153.032V153.032V155.04H9.51739V155.04V155.04V155.04V155.04V155.04V155.04V155.04V155.04V155.04V155.04V155.04V155.04V155.04V155.04V155.04V155.04V157.049V157.049V157.049V157.049V157.049V157.049H11.5261V157.049V157.049V157.049V157.049V157.049V157.049V157.049V157.049V157.049V157.049V157.049V157.049V157.049V157.049H13.5348V159.058V159.058V159.058V159.058V159.058V159.058V159.058V159.058V159.058V159.058V159.058V159.058H15.5435V159.058V161.067V161.067V161.067V161.067V161.067V161.067H17.5522V161.067V161.067V161.067V161.067V161.067V161.067V161.067V161.067H19.5609V161.067V161.067V161.067H21.5696V161.067V161.067V161.067V161.067L23.5783 159.058V159.058V159.058V159.058V159.058H25.587V157.049V157.049V157.049V157.049H27.5957V155.04V155.04V155.04V153.032V153.032H29.6043V153.032V153.032V151.023V151.023V151.023V151.023V151.023V149.014V149.014V149.014V149.014V149.014H31.613V149.014V149.014V149.014V147.006V147.006V147.006V147.006V147.006V147.006V147.006V147.006H33.6217V147.006V147.006V147.006V147.006V147.006V144.997V144.997V144.997V144.997V144.997V144.997V144.997V144.997V144.997V144.997V144.997V144.997H35.6304V144.997V144.997V144.997V144.997V144.997H37.6391V144.997V144.997V142.988V144.997V142.988V144.997V142.988V142.988V142.988V142.988L39.6478 144.997V144.997V142.988V142.988V142.988V142.988V142.988V142.988V142.988V142.988V142.988V142.988V142.988V142.988V142.988V142.988V142.988H41.6565V142.988V142.988V142.988V142.988V142.988V142.988V142.988V142.988V142.988V142.988H43.6652V140.98V140.98V142.988V140.98V140.98V140.98V142.988V142.988V142.988V142.988V142.988H45.6739V142.988V142.988V142.988V142.988V142.988V142.988V142.988V142.988V142.988V142.988H47.6826V142.988V142.988H49.6913V142.988V142.988V142.988V142.988V142.988V142.988V142.988V142.988H51.7V142.988V142.988V142.988V142.988V142.988V142.988V144.997V144.997H53.7087V144.997V144.997V144.997V144.997V144.997V144.997H55.7174V144.997V144.997V144.997V144.997V144.997V144.997V147.006H57.7261V147.006V147.006V147.006V147.006V147.006V147.006V147.006V147.006V147.006H59.7348V147.006V147.006V147.006V149.014V149.014V149.014V149.014H61.7435V149.014V149.014V149.014V149.014L63.7522 147.006V147.006V147.006V147.006V147.006V147.006H65.7609V147.006V147.006V147.006V147.006V147.006V144.997H67.7696V144.997V144.997V144.997V144.997V144.997V144.997V142.988H69.7783V142.988V140.98V140.98V140.98V138.971V138.971V138.971V138.971V138.971V136.962H71.787V136.962V134.954V134.954V134.954V132.945V132.945V132.945V130.936V130.936V130.936V128.927V128.927V128.927V128.927V128.927V128.927V128.927V126.919V126.919V126.919V126.919V126.919V126.919V126.919V124.91V124.91V122.901V122.901V122.901V122.901V122.901V122.901V122.901V122.901H69.7783V122.901V122.901V122.901V122.901V122.901V122.901V120.893V120.893V120.893V120.893V120.893V118.884V118.884V118.884V118.884V118.884V118.884V116.875V116.875V116.875V116.875V116.875V116.875V116.875V116.875V116.875V116.875H71.787V116.875V116.875V116.875V116.875V116.875V116.875V116.875V116.875L73.7957 118.884V118.884V118.884V118.884V118.884V118.884V118.884V118.884V118.884V118.884V118.884H75.8043V118.884V118.884V118.884V118.884V118.884V118.884V118.884V118.884V120.893V120.893H77.813V120.893V120.893V120.893V120.893V120.893V120.893V120.893V120.893H79.8217V120.893V120.893V120.893V120.893V120.893V120.893V120.893H81.8304V120.893V120.893V120.893V120.893V120.893V120.893V120.893V120.893V120.893V120.893V120.893L83.8391 122.901V122.901V122.901V122.901V122.901V122.901V122.901V122.901V122.901H85.8478V122.901V122.901V122.901V122.901V122.901V122.901H87.8565V122.901V122.901V122.901V122.901H89.8652V120.893V120.893V120.893V120.893V120.893V120.893V120.893V120.893V120.893V120.893V120.893V120.893V120.893V120.893H91.8739V120.893V120.893V120.893V120.893V120.893V122.901V120.893V120.893V120.893V122.901V122.901V122.901H93.8826V122.901V122.901V122.901V122.901V122.901V122.901V122.901V122.901V122.901V122.901H95.8913V122.901V122.901V122.901V122.901V122.901V122.901H97.9V122.901V122.901V122.901V122.901V122.901V122.901V122.901V122.901V122.901V122.901H99.9087V122.901V122.901V122.901V122.901V122.901V122.901V122.901V122.901V122.901V122.901V122.901H101.917V122.901V122.901V122.901V122.901V122.901V122.901V122.901V122.901V122.901V122.901V122.901H103.926V122.901V122.901V122.901V122.901V122.901V122.901V122.901V122.901V122.901H105.935V122.901V122.901V122.901V122.901V122.901V122.901V122.901H107.943V122.901V122.901V122.901V122.901V122.901V122.901V122.901V122.901V122.901V122.901V122.901V122.901V124.91V124.91V124.91V124.91V124.91V124.91H109.952V124.91V124.91V124.91V124.91V124.91V124.91V124.91V124.91V124.91V124.91V124.91V124.91V124.91V124.91V124.91V124.91H111.961V122.901V122.901V124.91V124.91V122.901V124.91V124.91V124.91V124.91V124.91V124.91V124.91H113.97V124.91V124.91V124.91V124.91V124.91V124.91V124.91V124.91V124.91V124.91V124.91V124.91V124.91H115.978V124.91V124.91V124.91V124.91V124.91V124.91V124.91V124.91V124.91H117.987V124.91V124.91V124.91V124.91V124.91V124.91V124.91V124.91V124.91V124.91H119.996V124.91V124.91V124.91V124.91V124.91V124.91V124.91V124.91V124.91V124.91H122.004V124.91V124.91V124.91V124.91V124.91V124.91V124.91V124.91V124.91V124.91H124.013V124.91V124.91V124.91V124.91V124.91V124.91V124.91V124.91V124.91V124.91V124.91V124.91V124.91H126.022V124.91V124.91V124.91V124.91V124.91V124.91V124.91V124.91V124.91V124.91H128.03V124.91V124.91V124.91V124.91V124.91V124.91V124.91V124.91V124.91H130.039V124.91V124.91V124.91V124.91V124.91V122.901V122.901V122.901V122.901H132.048V122.901V122.901V122.901V122.901V122.901V122.901V122.901V122.901V122.901H134.057V122.901V122.901V122.901V122.901V122.901V122.901V122.901V122.901H136.065V122.901V122.901V122.901V122.901V122.901V122.901V122.901H138.074V122.901V122.901V122.901V122.901V122.901V122.901V122.901V122.901V120.893V122.901V122.901V122.901V122.901H140.083V122.901V122.901V122.901V122.901V122.901V122.901V122.901V122.901V122.901V122.901V122.901H142.091V122.901V122.901V122.901V122.901V122.901V122.901V122.901V122.901H144.1V120.893V120.893V120.893V120.893V120.893V120.893V120.893V120.893V120.893V120.893V120.893H146.109V120.893V120.893V120.893V120.893V120.893V120.893V120.893V120.893V120.893V120.893L148.117 118.884V120.893V118.884V118.884V118.884V118.884V118.884V118.884V118.884V118.884V118.884V118.884V118.884V118.884V118.884H150.126V118.884V118.884V118.884V116.875V116.875V116.875V116.875V116.875V116.875V116.875V116.875V116.875H152.135V116.875V116.875V116.875V116.875V116.875V116.875V116.875V116.875V116.875V116.875V116.875V116.875V116.875V116.875V116.875V116.875V116.875H154.143V114.867V116.875V116.875V114.867V114.867V114.867V114.867V114.867V114.867V114.867V114.867V114.867H156.152V114.867V114.867V114.867V114.867V114.867V114.867H158.161V114.867V114.867V114.867V114.867V114.867V114.867V114.867V114.867V114.867V114.867V114.867H160.17V114.867V114.867V114.867V114.867V114.867V114.867V114.867V114.867V114.867V114.867H162.178V114.867V114.867V114.867V114.867V114.867V114.867V114.867H164.187V114.867V114.867V114.867V114.867V114.867V114.867V114.867V114.867V114.867V114.867H166.196V114.867V114.867V114.867V114.867V114.867V114.867V112.858V112.858V112.858H168.204V112.858V114.867V112.858V112.858V112.858V112.858V112.858V112.858V112.858H170.213V112.858V112.858V112.858V112.858V112.858V112.858V112.858V112.858V112.858V112.858V112.858V112.858H172.222V112.858V112.858V112.858V112.858V112.858V112.858V112.858V112.858V112.858V110.849V110.849V110.849V110.849V110.849H174.23V110.849V110.849V110.849V110.849V110.849V110.849V110.849V110.849V110.849V110.849H176.239V110.849V110.849V110.849V110.849V110.849V110.849V110.849V110.849V110.849V110.849V110.849H178.248V110.849V108.84V108.84V108.84V108.84V108.84V108.84V108.84H180.257V108.84V108.84V108.84V108.84V108.84V108.84V108.84V108.84V108.84V108.84V108.84V108.84V108.84H182.265V108.84V108.84V108.84V106.832V106.832V106.832V106.832V106.832H184.274V106.832V106.832V106.832V106.832V106.832V106.832V106.832V106.832V106.832V106.832V104.823V104.823H186.283V104.823V104.823V104.823V104.823V104.823V104.823V104.823V104.823V104.823V104.823H188.291V104.823V104.823V104.823V104.823V104.823V104.823V104.823V104.823V104.823V104.823H190.3V104.823V104.823V104.823V104.823V104.823V104.823V102.814V102.814V102.814V102.814V102.814V102.814V102.814H192.309V102.814V102.814V100.806V100.806V100.806V100.806V100.806V100.806V100.806V100.806V100.806V100.806V100.806V100.806V100.806V100.806V100.806L194.317 98.797V98.797V98.797V98.797V98.797V98.797V98.797V98.797V98.797V98.797V98.797V98.797V98.797V98.797V96.7883V96.7883V96.7883V96.7883V96.7883H196.326V96.7883V96.7883V96.7883V96.7883V96.7883V96.7883V96.7883V98.797V98.797V98.797V98.797V96.7883V98.797H198.335V98.797V96.7883V96.7883V96.7883V96.7883V96.7883V96.7883V96.7883V98.797V98.797V98.797V98.797V98.797V96.7883H200.343V96.7883V96.7883V96.7883V98.797V98.797V96.7883V98.797V98.797V96.7883V96.7883V96.7883V96.7883V96.7883V96.7883V96.7883V96.7883H202.352V96.7883V96.7883V96.7883V96.7883V96.7883V96.7883V96.7883V96.7883V96.7883V96.7883V96.7883V96.7883V96.7883V96.7883H204.361V96.7883V96.7883V94.7796V96.7883V96.7883V94.7796V94.7796V94.7796V94.7796V94.7796V94.7796V94.7796V94.7796V94.7796V94.7796H206.37V94.7796V94.7796V94.7796V94.7796V94.7796V94.7796V94.7796V94.7796V94.7796V94.7796H208.378V94.7796V94.7796V94.7796V94.7796V94.7796V94.7796V94.7796V94.7796V94.7796V94.7796V94.7796V92.7709V92.7709V92.7709V92.7709H210.387V92.7709V92.7709V92.7709V92.7709V92.7709V92.7709V92.7709V92.7709V92.7709V92.7709V92.7709V92.7709V92.7709V92.7709V92.7709V92.7709L212.396 90.7622V90.7622V90.7622V90.7622V90.7622V90.7622V90.7622V90.7622V90.7622V90.7622V90.7622V90.7622V90.7622V90.7622V88.7535V88.7535V88.7535V88.7535H214.404V88.7535V88.7535V88.7535V88.7535V88.7535V88.7535V88.7535V88.7535V88.7535V88.7535V88.7535V88.7535V88.7535H216.413V88.7535V88.7535V88.7535V88.7535V88.7535V88.7535V88.7535V88.7535H218.422V88.7535V88.7535V88.7535V86.7448V86.7448V86.7448V86.7448V86.7448V86.7448V86.7448V86.7448H220.43V86.7448V86.7448V86.7448V86.7448V86.7448V86.7448V86.7448V86.7448V86.7448V86.7448V86.7448H222.439V86.7448V86.7448V86.7448V86.7448V84.7361V86.7448V86.7448V86.7448V86.7448V86.7448H224.448V86.7448V86.7448V86.7448V86.7448V84.7361V84.7361V84.7361V84.7361V84.7361H226.457V84.7361V84.7361V84.7361V84.7361V84.7361V84.7361V84.7361V84.7361V84.7361V84.7361V84.7361H228.465V84.7361V84.7361V84.7361V82.7274H226.457H228.465V82.7274V82.7274V82.7274V82.7274V82.7274V82.7274V82.7274V84.7361V84.7361V84.7361V84.7361V84.7361H230.474V84.7361V84.7361V82.7274V82.7274V82.7274V82.7274V82.7274V82.7274V82.7274V82.7274V82.7274V82.7274V82.7274V82.7274V82.7274H232.483V82.7274V82.7274V80.7188V80.7188V80.7188V80.7188V80.7188H234.491V80.7188V80.7188V80.7188V80.7188V80.7188V80.7188H236.5V80.7188V80.7188V80.7188V80.7188V80.7188V80.7188H234.491V82.7274V82.7274V82.7274V82.7274V82.7274V82.7274V82.7274V82.7274V82.7274V82.7274V84.7361V84.7361V84.7361V84.7361V84.7361V84.7361V84.7361V84.7361V84.7361V84.7361V84.7361V84.7361V84.7361V84.7361V86.7448V86.7448V86.7448V86.7448V86.7448V86.7448V86.7448V86.7448V86.7448V86.7448V86.7448H232.483V86.7448V86.7448V86.7448V86.7448V86.7448V86.7448L230.474 88.7535V88.7535V88.7535V88.7535V88.7535V88.7535V88.7535V88.7535H228.465V88.7535V88.7535V88.7535V88.7535V88.7535V88.7535V88.7535V88.7535H226.457V88.7535V88.7535V88.7535V90.7622V90.7622V90.7622V90.7622V90.7622V90.7622V90.7622V90.7622H224.448V90.7622V90.7622V90.7622V90.7622V90.7622V90.7622V90.7622V90.7622V90.7622V90.7622H222.439V90.7622V90.7622V90.7622V90.7622V90.7622V90.7622V90.7622V90.7622V92.7709V92.7709V92.7709V92.7709V92.7709H220.43H222.439H220.43V92.7709V92.7709V92.7709V92.7709V92.7709V92.7709V92.7709V92.7709V92.7709V94.7796V94.7796V94.7796V94.7796V94.7796V94.7796V94.7796V94.7796H218.422V94.7796V94.7796V94.7796V94.7796V94.7796V94.7796V96.7883V96.7883V96.7883V96.7883V96.7883V96.7883V96.7883V96.7883V96.7883V96.7883V98.797V98.797V98.797V98.797H216.413V98.797V98.797V98.797V98.797V98.797V98.797V98.797V98.797V98.797V98.797V98.797L214.404 100.806V100.806V100.806V100.806V100.806V100.806V100.806V100.806H212.396V100.806V100.806V100.806V100.806V100.806V100.806V100.806V102.814V102.814V102.814H210.387V102.814V102.814V102.814V102.814V102.814V102.814V102.814V102.814V102.814V102.814V102.814V102.814V102.814V104.823H208.378V104.823V104.823V104.823V104.823V104.823V104.823V104.823V104.823V104.823V104.823L206.37 106.832V106.832V106.832V106.832V106.832V106.832V106.832V106.832V106.832V106.832H204.361V106.832V106.832V106.832L202.352 108.84V108.84V108.84V108.84V108.84H200.343V108.84V108.84V108.84V108.84V110.849V110.849H198.335V110.849V110.849V110.849H196.326V110.849V110.849V110.849V110.849V112.858H194.317V112.858V112.858V112.858V112.858H192.309V112.858V114.867V114.867V114.867H190.3V114.867V114.867V116.875V116.875V116.875V116.875V116.875H188.291V116.875V116.875V118.884V118.884V118.884V118.884H186.283V118.884V118.884V120.893V120.893V120.893V120.893V120.893V120.893V120.893V120.893V122.901V122.901V122.901V122.901H184.274V122.901V122.901V122.901V124.91V124.91V124.91V124.91V124.91V124.91V124.91V126.919V124.91H182.265V124.91V126.919V126.919V126.919V126.919V126.919V126.919V126.919H180.257V126.919V126.919H178.248V126.919V126.919V126.919V126.919V126.919V126.919V126.919V126.919V124.91L176.239 126.919V126.919V126.919V126.919V126.919V126.919V126.919H174.23V126.919V126.919V126.919V126.919V126.919V126.919V126.919V126.919H172.222V126.919V126.919V128.927V128.927V128.927V128.927V128.927L170.213 130.936V130.936V130.936V130.936V130.936V130.936V132.945V132.945V132.945V132.945H168.204V134.954V134.954V134.954V134.954V134.954V134.954V136.962V136.962V136.962V138.971V138.971V138.971V138.971V138.971V138.971V138.971V138.971V140.98V140.98V140.98V140.98V140.98V142.988V142.988V142.988V142.988V142.988V144.997V144.997V144.997V144.997V144.997V144.997V147.006H170.213V147.006V147.006V147.006V147.006V147.006V149.014V149.014V149.014V149.014V149.014V149.014H172.222V149.014V151.023V151.023V151.023V151.023V151.023V151.023V151.023V151.023H174.23V151.023V151.023V151.023V151.023V151.023V151.023V153.032V153.032V153.032V155.04V155.04H176.239V155.04V157.049V157.049V157.049V157.049V157.049V157.049H178.248V157.049V157.049V157.049V157.049V157.049V157.049V157.049V157.049V159.058V159.058V159.058V159.058V159.058V159.058V159.058V159.058V159.058H180.257V159.058V159.058V159.058V159.058V159.058V159.058V159.058V161.067V161.067V161.067V161.067V161.067V161.067V161.067V161.067H182.265V161.067V161.067V161.067V161.067V161.067V161.067V161.067V163.075V163.075V163.075V163.075V163.075V163.075V163.075V163.075V163.075H184.274V165.084V165.084V163.075V163.075V165.084V165.084V165.084V165.084V165.084V165.084V165.084V165.084V165.084V165.084V165.084V165.084V165.084V165.084V165.084V165.084V165.084V165.084V167.093V167.093V167.093H186.283H184.274V167.093V167.093V167.093V167.093V167.093V169.101V169.101V169.101V169.101V169.101V169.101V169.101V169.101V169.101V169.101H186.283V169.101V169.101V169.101V171.11V171.11V171.11V171.11V171.11V171.11V171.11V171.11V171.11V171.11L184.274 169.101V169.101V169.101V171.11V171.11V171.11V171.11V171.11V171.11V171.11V169.101V169.101H182.265V169.101V169.101V169.101V169.101V169.101V169.101V169.101V169.101H180.257V169.101V169.101V169.101V169.101V169.101V169.101V169.101V167.093V167.093V167.093H178.248V167.093V167.093V167.093V167.093V167.093V167.093V167.093V167.093H176.239V167.093V167.093V167.093V167.093V167.093V167.093V167.093V167.093V167.093V167.093H174.23V167.093V167.093V167.093V167.093V167.093V167.093V167.093V167.093V167.093V167.093V167.093V167.093V167.093H172.222V167.093V167.093V167.093V167.093V167.093V167.093V167.093V167.093V167.093V167.093V169.101V169.101H170.213V169.101V169.101V169.101V169.101V169.101H168.204V169.101V169.101V169.101V169.101V169.101V169.101V169.101V169.101V169.101V169.101Z" fill="#FDAB45"/>
</svg>
