<svg width="242" height="292" viewBox="0 0 242 292" fill="none" xmlns="http://www.w3.org/2000/svg">
<path fill-rule="evenodd" clip-rule="evenodd" d="M221.51 132.495L221.555 132.405L226.971 137.012L231.219 140.495L232.972 142.068L233.511 142.203L234.095 141.911L234.275 140.832L233.039 139.079L231.174 136L230.005 133.596L229.803 132.36L229.758 130.023L229.96 128.472L230.455 126.359L231.151 124.09L232.41 120.741L232.949 119.64L234.05 117.999L232.545 117.258L232.477 117.977L231.96 118.741L231.039 119.146L228.702 119.82L226.342 120.898L223.578 122L223.376 122.427L221.465 122.741L219.892 123.438L218.544 124.854L221.735 125.078L221.421 125.573L220.904 125.303L218.319 125.078L217.106 126.472L216.162 127.82L220.724 131.708L220.656 131.775L215.24 127.191L208.813 121.685L208.723 121.528L213.69 115.572L213.488 114.606L213.106 114.853L212.431 114.494L212.386 113.887L211.914 112.381L211.038 111.213L211.353 110.269L211.24 109.774L210.971 110.831L209.375 110.651L208.858 110.92L209.105 111.864L210.858 112.673L211.982 115.213L212.634 115.887L212.252 116.719L209.487 119.955L210.633 118.269L212.162 116.584L211.173 114.853L210.881 113.887L210.274 112.988L209.083 112.583L208.701 112.201L206.566 113.325L206.476 113.662L204.97 114.202L204.656 114.853L205.487 115.865L205.734 116.921L205.824 118.382L205.622 118.719L206.768 119.73V119.977L205.51 118.943L204.049 117.28L203.06 115.797L202.363 114.314L201.577 111.954L201.914 111.55L204.206 111.685L206.498 111.662L208.004 111.033L208.633 110.291L207.734 108.988L207.802 108.561L208.701 106.92L207.645 106.583L206.948 106.853L205.892 108.089L205.038 108.314L201.127 108.156L200.453 107.864L199.981 107.257L198.61 103.504L198.476 102.538L198.858 100.853L199.285 100.223L201.038 98.5603L202.026 98.448L202.476 98.6952L202.925 99.4368L202.611 99.9986L203.42 101.1L203.869 101.28L204.296 102.246L205.869 102.74L206.701 103.909L207.263 105.594L207.24 106.291L209.06 106.269L209.105 105.347L208.858 104.358L208.364 103.549L207.937 102.066L207.892 100.515L208.499 100.111L208.993 100.471L212.139 100.448L213.802 99.2795L214.072 98.5828L214.701 97.9311V97.3917L215.24 97.4816L215.982 98.1783L217.061 98.0435L219.263 99.0098L219.286 98.6053L220.364 97.976L220.387 97.5041L220.904 97.1445L222.05 97.167L225.174 98.4929L227.466 99.3469L228.882 100.313L231.331 102.336L232.724 103.257L233.848 104.988L234.298 106.111L235.196 107.617L234.253 109.01L235.354 109.302L235.961 109.729L236.5 110.876L236.432 113.348L236.14 114.381L235.039 116.674L233.578 118.898L232.41 121.101L230.814 125.438L230.342 127.281L229.893 130.832L230.342 133.978L232.208 137.484L234.41 140.765L234.477 141.596L233.556 142.338L232.904 142.203L231.466 140.877L228.612 138.54L221.51 132.495Z" fill="#FDAB45"/>
<path fill-rule="evenodd" clip-rule="evenodd" d="M181.958 109.574L181.531 109.551L181.913 110.316L181.396 110.945L180.025 111.507L179.418 111.282L179.014 111.866L177.328 111.911L176.317 112.316L174.182 112.72L173.8 111.574L172.901 110.967L172.519 110.136L171.53 109.439L170.654 109.664L169.755 108.518L169.62 107.709L169.081 107.731L167.912 106.967L167.26 106.99L166.137 106.36L165.035 105.282L162.743 104.877L162.721 103.888L161.058 104.158L160.428 103.394L159.889 103.237L159.148 101.866L159.013 101.012L160.384 100.765L160.9 99.8207L161.957 99.8431L162.474 99.1914L163.462 99.3487L167.463 100.944L168.159 101.012L169.777 102.09L169.732 102.877L171.171 103.237L172.856 103.304L173.013 103.731L173.957 104.158L176.025 104.001L177.98 103.326L179.396 103.237L180.002 103.034L181.621 103.394L182.003 104.001L182.475 103.574L184.43 104.248L185.374 103.821L185.801 103.978L187.014 103.641L187.374 103.281L187.733 103.686L189.261 103.753L190.003 104.428L190.34 105.282L189.846 106.45L189.643 107.641L190.565 108.473L188.992 108.495L188.632 108.765H187.688L186.61 109.147L185.98 108.765L185.239 109.035L184.025 108.563L181.958 109.574Z" fill="#FDAB45"/>
<path fill-rule="evenodd" clip-rule="evenodd" d="M81.8183 212.814L79.4137 210.364L79.2339 209.96L79.5261 208.971L78.7845 207.667L78.8069 207.285L78.2676 205.375L78.3575 204.094L78.8294 203.15L78.9867 201.577L78.7845 200.881L78.9418 199.645L79.144 200.903L79.9306 201.779L80.0205 202.386L80.6048 203.038H81.3689L82.1329 203.757L83.0319 203.892L83.6611 204.229L84.3128 204.117L85.2792 203.487L86.4702 203.038L88.6501 202.903L89.3018 203.465L89.6839 206.072L89.5715 207.42L89.2793 208.229L88.5827 208.724L86.9197 209.488L86.65 211.151L85.7511 212.297L83.9532 213.42L82.4925 213.331L81.8183 212.814Z" fill="#FDAB45"/>
<path fill-rule="evenodd" clip-rule="evenodd" d="M59.1882 206.949L54.334 206.185L54.2441 205.398L56.1543 204.118L56.7162 203.286L57.5027 202.679L59.8399 202.252L61.1209 201.668L61.9299 201.96L62.0647 202.859L62.9637 203.308L64.0648 203.106L64.357 202.724L64.8739 203.129L64.7166 203.533L63.9075 204.073L64.2671 204.545L64.8289 204.679L65.593 205.466L66.0874 205.511L66.7616 206.208L66.1099 206.567L65.4582 206.185L65.1435 206.657L63.503 206.994L61.7276 206.612L60.6714 206.635L59.1882 206.949Z" fill="#FDAB45"/>
<path fill-rule="evenodd" clip-rule="evenodd" d="M69.7052 192.159L69.5703 191.71L71.3906 190.519L73.2559 190.227L74.6267 190.564L75.0088 191.081L76.7617 191.755L76.9415 191.26L77.7055 190.698L78.3348 190.833L78.9191 192.901L79.5933 193.463L81.099 193.89L82.8069 193.777L84.0879 194.474L84.5373 195.036L83.6159 196.204L81.3237 196.07L78.8741 195.598L77.6831 195.148L75.6155 193.912L72.4693 193.215H71.1209L69.9299 192.586L69.7052 192.159Z" fill="#FDAB45"/>
<path fill-rule="evenodd" clip-rule="evenodd" d="M79.6838 192.631L79.2119 190.519L79.3917 189.058L80.2681 188.766L81.6839 189.215L83.1447 190.451L84.6504 191.979L85.0549 192.024L86.201 192.946L87.5494 194.361L87.3921 194.946L87.8191 195.148L88.4933 196.406L88.4258 196.654L87.1898 196.317L85.7066 196.249L85.4145 194.991L84.4706 194.092L82.8301 193.462L80.9873 193.238L79.6838 192.631Z" fill="#FDAB45"/>
<path fill-rule="evenodd" clip-rule="evenodd" d="M33.0073 186.586L30.3555 180.181L28.5352 175.529L28.5801 173.281L30.8049 171.529L31.7488 172.877L31.9511 172.675L39.075 167.686L42.9628 165.349L44.8056 164.809L48.5137 164.764L48.6035 164.966L46.6259 167.236L46.2439 168.472L44.2438 170.517L43.0302 171.596L45.1427 173.551L46.3562 171.821L46.9405 171.281L47.4799 171.753L48.4462 170.967L48.8283 170.899L48.2215 170.068L48.7384 169.888L49.098 168.787L50.334 168.068L50.9632 167.371L50.6935 166.967L52.6712 164.607L53.1206 164.652L53.7499 163.888L56.0421 164.27L56.0871 161.91H56.3343L56.3118 163.573L56.6264 164.27L59.0085 164.787L59.2782 164.157L60.3345 164.584L61.0086 164.517L62.4694 165.349L63.0537 166.337L63.3234 167.888L64.3796 168.989L65.9527 170.382L67.0988 170.427L67.7505 170.742L69.8855 172.899V173.192L69.009 174.023L66.3572 175.034L65.9078 174.585L64.065 174.18L63.2559 173.866L62.0424 175.057L63.0762 175.259L64.8965 175.978V177.147L65.1661 177.596L64.6493 178.226L61.9076 179.507L59.84 178.697L59.1659 178.023L55.75 176.136L55.4578 174.855L54.9859 175.776L53.8398 175.237L53.5701 175.416L52.9184 176.832L57.368 179.372L57.3006 180.023L53.9971 181.934L48.9406 183.776L48.8507 183.754L47.6147 179.192L43.4572 175.416L41.165 177.956L43.9067 180.518L46.109 188.181L46.0866 188.968L45.7045 189.709L45.0303 190.406L44.446 190.159L42.3111 192.316L42.4909 192.968L38.3109 197.17L37.5019 197.305L37.0749 197.035L36.1535 195.103L36.3558 195.17L37.0974 196.743L37.412 196.878L39.1424 195.08L39.457 194.563L38.6705 192.721L37.9963 192.316L37.5244 191.597L35.704 191.462L33.9287 187.754L33.0073 186.586Z" fill="#FDAB45"/>
<path fill-rule="evenodd" clip-rule="evenodd" d="M109.056 184.948L108.561 184.364L107.955 184.724L107.483 184.521L105.64 183.106L105.393 182.544L103.685 181.263L103.213 181.555L102.718 180.768L101.819 179.959L101.64 179.532L102.584 179.375L104.179 179.847L105.505 179.959L106.651 179.42L108.134 179.802L109.64 180.656L110.561 181.69L111.505 182.004L113.281 181.937L114.292 182.094L115.213 182.656L116.27 182.701L116.831 182.274L118.539 182.679L118.337 183.87L118.719 183.15L120.742 182.679L121.663 183.218L121.528 183.825L119.506 186.791L118.405 187.915L118.607 185.51L118.225 185.128L117.64 185.96L117.753 186.701L117.371 187.825L118.112 188.139L117.528 188.791L116.337 189.623L115.303 189.465L114.719 189.937L114.045 190.027L113.123 189.241L112.944 188.522L112.449 188.364L111.797 187.645L111.483 188.05L109.797 186.207L109.932 185.465L109.056 184.948Z" fill="#FDAB45"/>
<path fill-rule="evenodd" clip-rule="evenodd" d="M83.6611 87.2791L83.8634 87.2117L84.5825 89.1893L86.223 88.178L87.6838 87.8409L87.6613 87.6162L90.0884 86.0655L91.6615 84.6722L93.8414 83.189L97.055 81.1664L98.0438 80.3349L98.336 80.4698L99.2798 79.6607L100.83 79.1439L102.179 80.9866L101.078 79.054L102.673 78.6719L103.46 78.9416L104.224 78.7618L106.898 78.582L109.213 79.4135L109.056 79.7956L107.707 80.717L107.145 81.5709L107.527 81.8631L108.247 80.9642L109.056 80.5372L110.067 81.099L109.685 81.7957L110.269 82.1103L111.707 79.5933L114.944 81.4361L113.82 83.4811L114.247 83.7283L115.37 81.7283L116.382 81.908L117.46 82.5148L118.449 83.5036L118.786 83.4137L120.112 84.4475L121.371 85.2116L122.202 85.5262L123.101 86.4476L123.461 87.6611L121.506 88.9196L120.966 88.4252L121.011 86.897L120.652 86.515L120.404 86.9645L120.539 88.2904L120.36 89.5264L121.326 90.2455L120.697 89.414L121.798 89.5938L123.011 89.2792L123.528 88.9421L124.742 89.3017L125.011 89.7062L125.483 91.549L126.742 93.6614L127.731 94.4704L128.45 95.6615L128.135 97.0773L127.281 97.729L127.169 98.6279L126.36 99.01L125.955 100.179L128.742 101.549L129.124 101.01L129.955 101.122L130.36 100.695L131.798 100.673L132.113 100.179L131.574 99.2122L132.293 98.3807L133.753 97.5043L134.765 97.1447L135.843 97.1672L136.9 97.5492L138.765 98.8752L140.72 100.111L139.933 101.122L140.293 101.325L140.945 100.246L141.664 100.561L144.9 102.561L145.282 103.19L145.237 104.179L144.765 105.078L145.417 105.37L145.889 104.381L147.282 103.257L148.518 102.673L149.597 102.763L150.024 102.314L151.462 102.066L152.428 102.314L153.058 103.662L153.103 104.606L154.136 104.134L155.642 105.819L157.35 106.943L158.721 108.314L161.238 110.673L161.193 111.348L160.676 111.662L160.788 112.696L161.89 113.213L162.721 114.022L164.496 117.258L165.845 117.932L168.137 119.618L169.823 120.517L172.789 121.258L175.328 121.438L177.216 120.989L177.778 121.281L178.767 121.034L178.52 120.427L179.576 119.73L180.183 119.056L181.261 118.449L181.846 118.854L182.857 118.719L181.98 118.494L181.598 117.595L181.666 117.033L182.857 116.202L185.441 115.775L187.981 116.359L188.408 116.764L189.464 117.191L189.531 116.831L188.655 116.696L188.026 115.573L191.914 117.146L193.756 117.685L194.341 118.539L194.678 119.528L195.329 120.18L195.419 120.831L196.453 123.348L196.947 124.315L197.734 125.034L198.431 125.079L198.363 125.528L197.352 125.596L197.217 126.809L198.521 127.326L199.599 127.281L200.498 126.697L201.195 126.899L201.622 127.596L203.15 128.247L203.757 128L204.543 128.472L207.6 129.776L209.6 131.101H209.914L211.982 132.45L213.915 134L214.836 135.236L215.016 136.81L214.431 137.012L214.184 136.675L214.611 135.978L214.589 135.349L213.802 134.18L212.341 133.012L211.825 132.967L210.858 132.315L210.094 132.135L209.577 132.719L209.442 134L209.645 134.585L208.881 136.023L208.813 136.562L207.802 138.046L206.543 141.102L206.094 142.675L205.577 143.709L204.88 144.405L204.701 145.619L204.386 146.226L204.274 147.147L204.948 148.069L205.487 148.406L209.69 148.361L209.802 148.675L209.892 151.687L210.296 151.956L209.757 152.676L208.049 152.72L207.959 150.675L205.173 150.743L205.218 152.765L204.431 152.698L201.352 152.765L200.251 152.855L198.521 153.417L197.262 154.361L195.981 155.08L195.082 155.305L193.307 155.103L192.183 154.294L189.756 153.597L186.542 154.518L187.149 153.889L186.632 152.271L184.318 152.293L183.082 152.81L183.014 152.473L179.935 152.653L179.261 153.035L178.003 153.17L176.744 153.687L176.25 153.215L175.823 153.664L174.564 154.091L173.104 154.833L172.654 154.698L170.924 155.17L169.575 155.237L166.991 156.069L162.496 157.799L161.755 157.62L159.867 158.384L158.519 158.563L154.563 159.552L151.642 160.766L147.822 161.777L145.26 162.833L144.72 163.283L143.327 163.395L141.372 164.811L140.743 165.013L139.462 166.227L138.001 166.923L136.293 168.474L134.832 169.508L133.798 168.811L132.697 169.62L132.989 170.429L132.652 171.508L128.675 174.452L128.764 174.564L127.191 175.71L128.045 176.879L127.618 177.171L126.247 175.441L126.495 174.969L123.82 173.373L123.214 173.261L123.191 177.755L122.719 177.913L123.438 178.767L123.011 179.126L120.337 176.16L119.753 176.744L120.876 178.137L120.404 178.654L117.46 175.8L113.887 175.89L110.179 177.98H108.022L106.561 177.688L106.831 176.34L106.246 177.643L104.718 176.452L103.887 176.385L103.258 176.946L102.426 176.991L101.684 176.474L101.595 177.194L101.01 177.665L100.943 178.362L98.9877 176.609L99.1 176.34L97.7517 175.193L97.4146 175.418L97.1449 174.587L96.3583 174.609L96.2235 173.935L94.538 176.834L91.5491 181.823L88.2456 179.823L92.066 173.306L87.4366 170.497L84.4701 175.508L74.6494 169.643L75.9978 167.328L77.6608 167.081L82.5824 170.025L83.7285 170.654L85.2567 168.114L79.6834 164.811L80.807 162.968L78.2676 160.271L77.4361 161.013L77.0316 161.687L75.391 161.957H74.0876L71.9751 161.35L71.5931 160.788L72.065 159.912L71.3234 159.755L70.1773 160.878L64.8961 159.53L63.75 155.889L63.9972 154.159L64.9411 152.945L65.6827 151.552L66.3344 150.765L66.5367 149.439L66.9861 148.069L66.6266 147.709L66.3794 146.653L65.885 146.181L64.3118 146.136L64.2669 145.686L65.031 144.226L65.6377 144.091L66.1322 144.698L67.0985 145.08V143.776L66.6041 142.495L65.9973 141.417L65.5928 141.102L65.0984 139.709L64.2444 139.371L64.2219 136.45H64.0871L64.0646 139.529L63.323 139.641L62.5589 139.192L61.5926 139.304L61.2555 139.843L60.0195 140.091L57.907 141.821L56.8958 142.136L54.9181 141.933L54.4237 143.035L53.8619 143.754L49.0527 143.776V143.821H53.8619L54.2889 143.507L54.8058 142.091L57.0081 142.248L57.9969 141.888L60.0869 140.181L61.2555 140.046L61.8848 140.63L62.4241 140.428L63.8174 141.349L63.7275 142.428L64.2669 142.922L64.4242 144.473L63.9298 145.799L63.9523 146.406L64.4017 146.675L65.84 146.608L66.4018 147.349L66.5367 148.203L65.7951 149.889L65.0759 150.72L64.2894 152.046L64.3568 152.249L63.0983 154.294L62.514 156.002L61.7724 157.732L62.1994 158.069L63.0983 157.754L63.0758 157.17L64.1096 160.159L64.0197 160.249L61.4128 158.923L58.2441 156.249L56.4688 156.091L56.671 157.148L57.6598 157.17L60.6712 159.732L60.424 160.406L61.1431 160.541L56.3564 160.496L56.3339 161.642H56.0867L56.1317 157.103L55.8395 156.271L54.6709 156.653L54.8058 159.305L51.7944 159.417L51.7719 158.406L50.3336 157.889L49.5246 156.586H48.2661L47.7492 157.26L47.5919 158.406L47.6818 159.979L46.3334 160.339L45.2997 160.294L42.94 160.743L42.3332 156.249L41.7714 155.844L41.4119 156.136L41.9737 160.474L41.9962 161.26L41.1422 161.642L40.041 160.451L39.8612 160.631L40.7826 161.642L40.3331 161.934L37.8386 159.238L37.5914 157.035L35.7037 157.282L36.0633 160.092L38.4005 162.564L37.3667 163.507L33.6811 166.564L34.6025 165.62L33.9958 164.901L33.7935 164.182L30.9394 162.519L31.1192 162.159L30.6698 161.62L29.9057 162.271L29.636 161.934L30.2428 161.283L29.0966 160.451L28.3326 159.058L27.1415 160.069L26.6471 159.485L28.6472 157.193L30.3102 155.462L29.7034 154.81L28.4449 155.979L26.6246 157.957L25.3437 156.698L24.8942 156.002L27.6809 153.035L26.6246 151.956L24.8717 153.754L23.4335 154.855L22.175 153.889L20.8266 152.428L20.1074 153.395L19.5232 154.563L19.6355 155.058L21.0513 156.698L21.5682 157.889L25.9954 165.957L26.6696 167.283L26.8269 168.159L26.6021 169.036L26.0628 169.755L25.029 170.272L22.5345 170.16L22.13 170.317L21.8379 174.722L23.5683 174.766L23.5458 179.036L23.4784 178.272L22.6694 178.385L21.4334 178.25L20.2648 178.385L19.3658 177.868L18.2422 177.935L14.9162 177.958L13.5453 178.43L14.1296 178.632H15.5679L15.6128 178.946H22.2649V179.014H12.5116L12.8936 178.407L11.6801 178.34L10.534 179.868L10.5115 181.711H10.9834L11.0958 182.317L18.6917 182.295L18.7141 182.43L11.3879 182.52L11.0733 182.857L11.0508 183.913L11.4329 184.295L12.8487 184.16L12.8262 184.565L11.4553 184.587L10.534 185.486L10.5564 186.273L10.8935 186.407H12.8936L10.534 186.565L10.3991 187.082L10.8261 187.801L10.7812 189.666L11.1632 191.194L11.5902 192.003L12.6239 192.048L12.7138 193.599L10.2643 193.576L10.3542 195.711L10.0171 196.43L10.1519 199.622L11.77 200.116L17.7927 201.622L18.9613 201.981L19.5007 201.869L21.321 201.891L22.8267 202.206L23.0739 201.779L22.8042 200.206L23.9728 202.386L23.5458 203.172L23.0289 203.307L7.11806 199.217L5.92699 198.408L5.5 197.239L6.10677 198.004V196.992L5.61236 195.801L5.7472 194.835L5.56742 193.486L5.81462 190.408L5.94946 189.778L6.60118 190.026L6.75849 191.014L7.07311 189.419L7.56752 189.307L8.15181 189.891L8.46644 189.329L7.76977 188.587L5.54495 188.363V187.261H8.75858V185.958H5.67978L7.05064 185.846V185.531H8.55633L8.5788 185.239H7.05064V182.947L5.67978 182.834L8.55633 182.812L8.53385 181.508H5.54495L7.47762 181.396V179.328H5.54495V178.902L7.52257 178.879V177.216H6.03935L7.81472 172.407L8.30912 171.238L9.47772 170.879L10.5789 170.294L11.4329 169.463L11.5003 168.789L11.9722 167.98L11.9947 166.137L12.3093 165.26L11.7475 164.317L11.5003 163.418L11.1857 163.373L11.5003 161.71L11.7924 161.755L13.1183 158.024L14.3319 154.9L14.9836 152.968L17.3882 146.45L18.2422 144.293L18.5119 143.08L18.8265 142.585L19.4108 140.697L19.1636 140.225L19.8378 139.506L20.2648 138.473L19.8378 138.562L19.2535 137.888L19.1186 137.214L19.3658 136.36L19.9951 135.753L20.6917 135.551L21.1187 136.18L22.1525 133.236L22.2424 132.607L23.2761 132.113L23.7481 131.483L26.6021 126.135L26.4898 125.573L27.4112 125.281V124.629L27.7932 125.528L28.1528 125.281L28.0404 124.607L28.4 124.629L30.2428 120.854L30.0855 120.337L31.0069 119.281L31.5237 119.101L31.7709 118.179L32.2429 117.842V117.325L32.8272 115.932L32.6923 114.786L32.9171 113.415L32.6474 112.898L33.2542 111.348L32.6923 109.707L33.5014 109.505L33.9059 109.033L34.1081 108.089L34.7374 107.932L35.2543 108.246L36.8274 106.898L36.4678 106.314L36.8274 105.932L37.7488 105.729L37.097 105.078L37.2319 103.999L37.6589 103.55L37.3442 103.325L38.0409 102.583L37.9735 102.134L38.3331 100.561L39.4567 99.8864L39.3443 99.6392L40.0859 98.583L41.322 98.6729L42.5804 97.5492L43.8389 97.9088L44.0412 97.1447L45.0075 96.92L45.6593 96.493L47.2998 96.3582L49.0527 95.3019L50.8955 93.3468L51.7944 92.9198L52.8281 91.6613L53.6596 90.9422L54.581 90.4253L56.8958 88.7848L58.5588 88.2904L60.8735 87.9083L61.6151 88.3803L61.4353 89.2792L62.132 89.4814L64.1321 88.5376L65.1209 88.6949L65.5029 89.4365L66.1097 89.886L66.7389 90.9647L67.3232 91.0545L68.5592 92.2681L68.0199 93.167L68.1547 93.8861L68.7615 93.0097L69.0087 93.7963L70.874 93.8187L71.7729 93.167L74.4696 94.7851L75.1438 94.4929L75.7057 94.6278L76.4248 94.1109L79.8632 94.1333L80.6272 93.9985L81.0318 92.8749L81.7509 91.504L82.6273 91.3467L83.0318 91.886L82.6498 90.7849L82.897 90.2006L83.6836 89.5264L84.0656 88.605L83.6611 87.2791Z" fill="#FDAB45"/>
</svg>
